<svg width="25" height="26" viewBox="0 0 25 26" fill="none" xmlns="http://www.w3.org/2000/svg">
<path d="M18.693 8.72589C19.0482 8.303 18.9934 7.67222 18.5705 7.31699C18.1476 6.96177 17.5168 7.01662 17.1616 7.43951L18.693 8.72589ZM10.0279 17.4867L9.28459 18.1557C9.47821 18.3708 9.75556 18.4915 10.045 18.4866C10.3344 18.4816 10.6074 18.3516 10.7936 18.1299L10.0279 17.4867ZM7.38572 13.0562C7.01626 12.6456 6.38397 12.6124 5.97346 12.9818C5.56295 13.3513 5.52967 13.9836 5.89913 14.3941L7.38572 13.0562ZM24.5697 12.7848C24.5697 6.00239 19.0673 0.5 12.2848 0.5V2.5C17.9627 2.5 22.5697 7.10696 22.5697 12.7848H24.5697ZM12.2848 0.5C5.50239 0.5 0 6.00239 0 12.7848H2C2 7.10696 6.60696 2.5 12.2848 2.5V0.5ZM0 12.7848C0 19.5673 5.50239 25.0697 12.2848 25.0697V23.0697C6.60696 23.0697 2 18.4627 2 12.7848H0ZM12.2848 25.0697C19.0673 25.0697 24.5697 19.5673 24.5697 12.7848H22.5697C22.5697 18.4627 17.9627 23.0697 12.2848 23.0697V25.0697ZM17.1616 7.43951L9.26217 16.8435L10.7936 18.1299L18.693 8.72589L17.1616 7.43951ZM10.7712 16.8178L7.38572 13.0562L5.89913 14.3941L9.28459 18.1557L10.7712 16.8178Z" fill="#31C65B"/>
</svg>
