<svg width="55" height="71" viewBox="0 0 55 71" fill="none" xmlns="http://www.w3.org/2000/svg">
<circle cx="27.5" cy="27.5" r="27.5" fill="#5956E9"/>
<path d="M22.22 36.12C21.26 36.12 20.42 35.94 19.7 35.58C18.98 35.18 18.4 34.66 17.96 34.02C17.56 33.38 17.24 32.62 17 31.74C16.76 30.86 16.64 29.94 16.64 28.98C16.64 27.02 17.14 25.18 18.14 23.46C19.18 21.74 20.78 20.38 22.94 19.38L23.48 20.46C22.36 20.98 21.36 21.74 20.48 22.74C19.64 23.7 19.14 24.72 18.98 25.8C18.74 26.64 18.72 27.46 18.92 28.26C19.8 27.3 20.98 26.82 22.46 26.82C23.82 26.82 24.94 27.24 25.82 28.08C26.7 28.88 27.14 30 27.14 31.44C27.14 32.84 26.68 33.98 25.76 34.86C24.84 35.7 23.66 36.12 22.22 36.12ZM34.58 36.12C33.62 36.12 32.78 35.94 32.06 35.58C31.34 35.18 30.76 34.66 30.32 34.02C29.92 33.38 29.6 32.62 29.36 31.74C29.12 30.86 29 29.94 29 28.98C29 27.02 29.5 25.18 30.5 23.46C31.54 21.74 33.14 20.38 35.3 19.38L35.84 20.46C34.72 20.98 33.72 21.74 32.84 22.74C32 23.7 31.5 24.72 31.34 25.8C31.1 26.64 31.08 27.46 31.28 28.26C32.16 27.3 33.34 26.82 34.82 26.82C36.18 26.82 37.3 27.24 38.18 28.08C39.06 28.88 39.5 30 39.5 31.44C39.5 32.84 39.04 33.98 38.12 34.86C37.2 35.7 36.02 36.12 34.58 36.12Z" fill="white"/>
</svg>
