<svg width="29" height="29" viewBox="0 0 29 29" fill="none" xmlns="http://www.w3.org/2000/svg">
<mask id="mask0_1_4211" style="mask-type:alpha" maskUnits="userSpaceOnUse" x="3" y="2" width="24" height="22">
<path d="M14.0393 2.92705C14.3386 2.00574 15.6421 2.00574 15.9414 2.92705L17.9113 8.98961C18.0451 9.40163 18.4291 9.68059 18.8623 9.68059H25.2369C26.2056 9.68059 26.6084 10.9202 25.8246 11.4896L20.6675 15.2365C20.317 15.4911 20.1704 15.9425 20.3043 16.3545L22.2741 22.4171C22.5734 23.3384 21.519 24.1045 20.7353 23.5351L15.5781 19.7882C15.2276 19.5336 14.7531 19.5336 14.4026 19.7882L9.24545 23.5351C8.46173 24.1045 7.40725 23.3384 7.7066 22.4171L9.67645 16.3545C9.81032 15.9425 9.66366 15.4911 9.31318 15.2365L4.15606 11.4896C3.37235 10.9202 3.77512 9.68059 4.74385 9.68059H11.1184C11.5516 9.68059 11.9356 9.40163 12.0694 8.98961L14.0393 2.92705Z" fill="#FFA722"/>
</mask>
<g mask="url(#mask0_1_4211)">
<rect x="3.72754" y="0.549561" width="10.9881" height="25.2727" rx="1" fill="#FFA722"/>
</g>
</svg>
