<svg width="24" height="23" viewBox="0 0 24 23" fill="none" xmlns="http://www.w3.org/2000/svg">
<path d="M11.0489 1.29961C11.3483 0.378297 12.6517 0.378299 12.9511 1.29961L14.9187 7.35534C15.0526 7.76736 15.4365 8.04632 15.8697 8.04632H22.2371C23.2058 8.04632 23.6086 9.28594 22.8249 9.85534L17.6736 13.598C17.3231 13.8526 17.1764 14.304 17.3103 14.716L19.2779 20.7717C19.5773 21.6931 18.5228 22.4592 17.7391 21.8898L12.5878 18.1471C12.2373 17.8925 11.7627 17.8925 11.4122 18.1471L6.2609 21.8898C5.47719 22.4592 4.42271 21.6931 4.72206 20.7717L6.68969 14.716C6.82356 14.304 6.6769 13.8526 6.32642 13.598L1.17511 9.85534C0.391392 9.28594 0.794168 8.04632 1.76289 8.04632H8.13026C8.56349 8.04632 8.94744 7.76736 9.08132 7.35534L11.0489 1.29961Z" fill="#FFA722"/>
</svg>
