<svg width="25" height="24" viewBox="0 0 25 24" fill="none" xmlns="http://www.w3.org/2000/svg">
<path d="M12.5652 0C5.93691 0 0.5625 5.37201 0.5625 11.9973C0.5625 16.9087 3.5203 21.1292 7.74803 22.9877C7.71588 22.1522 7.74267 21.1453 7.95701 20.2348C8.18742 19.26 9.50021 13.6952 9.50021 13.6952C9.50021 13.6952 9.11441 12.9293 9.11441 11.7992C9.11441 10.021 10.1432 8.6927 11.4292 8.6927C12.5223 8.6927 13.0474 9.51216 13.0474 10.4923C13.0474 11.5903 12.3455 13.2292 11.9865 14.7503C11.6864 16.025 12.6241 17.0587 13.8833 17.0587C16.1553 17.0587 17.6878 14.1397 17.6878 10.6798C17.6878 8.04999 15.9141 6.08436 12.6938 6.08436C9.05547 6.08436 6.78353 8.79982 6.78353 11.8313C6.78353 12.8757 7.09431 13.6148 7.57657 14.1825C7.79626 14.445 7.82841 14.5521 7.74803 14.852C7.68909 15.0716 7.56049 15.6019 7.50155 15.8161C7.42117 16.1214 7.17469 16.2285 6.90141 16.116C5.22426 15.4305 4.44194 13.5988 4.44194 11.5314C4.44194 8.12497 7.31936 4.03838 13.0206 4.03838C17.602 4.03838 20.6188 7.35371 20.6188 10.9101C20.6188 15.6179 17.9985 19.1314 14.1405 19.1314C12.8438 19.1314 11.6275 18.4298 11.2095 17.6371C11.2095 17.6371 10.5129 20.4008 10.3629 20.9364C10.1111 21.863 9.61273 22.7842 9.15728 23.5073C10.2621 23.833 11.4079 23.999 12.5598 24C19.1881 24 24.5625 18.628 24.5625 12.0027C24.5625 5.37737 19.1934 0 12.5652 0Z" fill="#D4D4D4"/>
</svg>
