<svg width="39" height="36" viewBox="0 0 39 36" fill="none" xmlns="http://www.w3.org/2000/svg">
<path d="M32.1382 33.9413L37.5499 2.76994C37.6839 1.99771 36.9179 1.37844 36.1909 1.67135L1.98107 15.4547C1.19454 15.7716 1.13463 16.8621 1.88172 17.2632L11.6172 22.4907C11.8719 22.6275 12.055 22.8678 12.1192 23.1498L14.0645 31.6959C14.229 32.4188 15.0955 32.7176 15.6706 32.2497L21.0053 27.9096C21.3712 27.6119 21.8953 27.6104 22.263 27.9059L30.5263 34.5496C31.1199 35.0268 32.0079 34.6917 32.1382 33.9413Z" stroke="#5956E9" stroke-width="2"/>
<path d="M28.8511 8.35201L10.0522 20.5065C9.8642 20.628 9.7799 20.8597 9.84583 21.0736L13.2175 32.0147C13.2821 32.2244 13.4759 32.3675 13.6953 32.3675H14.1956C14.4628 32.3675 14.6828 32.1573 14.695 31.8904L15.1128 22.7798C15.1188 22.6497 15.1753 22.527 15.2704 22.4379L29.4645 9.13674C29.9092 8.71995 29.3629 8.02107 28.8511 8.35201Z" fill="#5956E9"/>
</svg>
