<svg width="38" height="45" viewBox="0 0 38 45" fill="none" xmlns="http://www.w3.org/2000/svg">
<path d="M25.7902 44H5.72502C3.1117 44 1 41.8691 1 39.2403V11.5071C1 8.87824 3.1117 6.73926 5.72502 6.73926H25.7983C28.4035 6.73926 30.5233 8.87007 30.5233 11.5071V39.2403C30.5152 41.8691 28.4035 44 25.7902 44Z" stroke="#5956E9" stroke-width="2" stroke-miterlimit="10"/>
<path d="M29.8272 13.7604H26.955C24.8514 13.7604 23.1523 12.046 23.1523 9.92334V6.9353" stroke="#5956E9" stroke-width="2" stroke-miterlimit="10"/>
<path d="M10.668 1H29.0664C32.9743 1 36.1459 4.20031 36.1459 8.14354V38.0239" stroke="#5956E9" stroke-width="2" stroke-miterlimit="10" stroke-linecap="round"/>
<path d="M7.69922 24.0635H23.2578" stroke="#5956E9" stroke-width="2" stroke-miterlimit="10" stroke-linecap="round"/>
<path d="M7.69922 29.4189H23.2578" stroke="#5956E9" stroke-width="2" stroke-miterlimit="10" stroke-linecap="round"/>
<path d="M7.69922 34.8074H23.2578" stroke="#5956E9" stroke-width="2" stroke-miterlimit="10" stroke-linecap="round"/>
</svg>
