<svg width="54" height="53" viewBox="0 0 54 53" fill="none" xmlns="http://www.w3.org/2000/svg">
<path d="M25.165 7.48047C25.8 5.82834 28.1375 5.82834 28.7725 7.48048C29.7304 9.97287 32.8407 10.8063 34.9165 9.12676C36.2924 8.01345 38.3167 9.18218 38.0406 10.9305C37.6239 13.5679 39.9009 15.8448 42.5383 15.4282C44.2866 15.152 45.4553 17.1763 44.342 18.5523C42.6625 20.6281 43.4959 23.7384 45.9883 24.6963C47.6404 25.3313 47.6404 27.6687 45.9883 28.3037C43.4959 29.2616 42.6625 32.3719 44.342 34.4477C45.4553 35.8237 44.2866 37.848 42.5383 37.5718C39.9009 37.1552 37.6239 39.4321 38.0406 42.0695C38.3167 43.8178 36.2924 44.9865 34.9165 43.8732C32.8407 42.1937 29.7304 43.0271 28.7725 45.5195C28.1375 47.1717 25.8 47.1717 25.165 45.5195C24.2071 43.0271 21.0968 42.1937 19.021 43.8732C17.6451 44.9865 15.6208 43.8178 15.8969 42.0695C16.3136 39.4321 14.0366 37.1552 11.3992 37.5718C9.65093 37.848 8.4822 35.8237 9.59551 34.4477C11.275 32.3719 10.4416 29.2616 7.94922 28.3037C6.29709 27.6687 6.29709 25.3313 7.94923 24.6963C10.4416 23.7384 11.275 20.6281 9.59551 18.5523C8.4822 17.1763 9.65093 15.152 11.3992 15.4282C14.0366 15.8448 16.3136 13.5679 15.8969 10.9305C15.6208 9.18218 17.6451 8.01345 19.021 9.12676C21.0968 10.8063 24.2071 9.97287 25.165 7.48047Z" stroke="#5956E9" stroke-width="2"/>
<circle cx="26.9696" cy="26.4999" r="12.5204" stroke="#5956E9" stroke-width="2"/>
</svg>
