<svg width="51" height="50" viewBox="0 0 51 50" fill="none" xmlns="http://www.w3.org/2000/svg">
<rect x="42.125" y="43.1567" width="7.82924" height="3.50271" fill="#38D4FF"/>
<path d="M45.5842 5.19431L42.3924 12.2383C42.2162 12.6273 42.125 13.0494 42.125 13.4765V45.5352C42.125 46.6398 43.0204 47.5352 44.125 47.5352H47.9542C49.0588 47.5352 49.9542 46.6398 49.9542 45.5352V13.4765C49.9542 13.0494 49.8631 12.6273 49.6868 12.2383L46.495 5.19431C46.3176 4.80279 45.7616 4.80279 45.5842 5.19431Z" stroke="#5956E9" stroke-width="2"/>
<path d="M42.125 13.3838H46.5289H49.9542" stroke="#5956E9" stroke-width="2"/>
<path d="M42.125 43.1567H49.9542" stroke="#5956E9" stroke-width="2"/>
<path d="M23.9761 10.2712L23.5975 3.97755C23.562 3.38742 24.0435 2.89548 24.6342 2.91826L25.8062 2.96344C26.0541 2.973 26.2896 3.07439 26.467 3.24793L35.1442 11.7381C35.6639 12.2466 35.4844 13.1222 34.8065 13.3852L32.7596 14.1793C32.6233 14.2321 32.4771 14.2545 32.3312 14.2447L26.8845 13.8802C26.5916 13.8606 26.3221 13.7133 26.1474 13.4773L24.1705 10.8061C24.0552 10.6504 23.9877 10.4646 23.9761 10.2712Z" fill="#38D4FF"/>
<path d="M2 9V40.7522C2 44.6182 5.13401 47.7522 9 47.7522H29.5041C33.3701 47.7522 36.5041 44.6182 36.5041 40.7522V15.069C36.5041 13.0815 35.6592 11.1877 34.1803 9.86L27.4199 3.79105C26.1353 2.63786 24.47 2 22.7437 2H9C5.13401 2 2 5.13401 2 9Z" stroke="#5956E9" stroke-width="2.5"/>
<path d="M6.89258 26.9568C6.89258 26.2314 7.68126 25.6433 8.65416 25.6433H28.6187C29.5916 25.6433 30.3803 26.2314 30.3803 26.9568C30.3803 27.6823 29.5916 28.2703 28.6187 28.2703H8.65416C7.68126 28.2703 6.89258 27.6823 6.89258 26.9568Z" fill="#E541ED"/>
<path d="M6.89258 20.8272C6.89258 20.1018 7.68126 19.5137 8.65416 19.5137H28.6187C29.5916 19.5137 30.3803 20.1018 30.3803 20.8272C30.3803 21.5526 29.5916 22.1407 28.6187 22.1407H8.65416C7.68126 22.1407 6.89258 21.5526 6.89258 20.8272Z" fill="#E541ED"/>
<path d="M6.89258 33.0865C6.89258 32.361 7.68126 31.7729 8.65416 31.7729H28.6187C29.5916 31.7729 30.3803 32.361 30.3803 33.0865C30.3803 33.8119 29.5916 34.4 28.6187 34.4H8.65416C7.68126 34.4 6.89258 33.8119 6.89258 33.0865Z" fill="#E541ED"/>
<path d="M6.89258 39.2163C6.89258 38.4909 7.69065 37.9028 8.67513 37.9028H21.7472C22.7316 37.9028 23.5297 38.4909 23.5297 39.2163C23.5297 39.9418 22.7316 40.5299 21.7472 40.5299H8.67513C7.69065 40.5299 6.89258 39.9418 6.89258 39.2163Z" fill="#E541ED"/>
<path d="M23.4082 2.18604V9.90307C23.4082 12.1122 25.1991 13.9031 27.4082 13.9031H35.6717" stroke="#5956E9" stroke-width="2.5" stroke-linecap="round"/>
</svg>
