<svg width="137" height="45" viewBox="0 0 137 45" fill="none" xmlns="http://www.w3.org/2000/svg">
<path d="M12.1372 0.960938V1.1526L11.333 1.34426V9.83642L12.1372 10.0281V10.2197H8.32476V10.0281L9.12895 9.83642V2.59745L5.9718 10.3524H5.56968L1.47432 2.59745V9.63001L2.54656 10.0281V10.2197H0V10.0281L1.07224 9.63001V1.34426L0.268049 1.1526V0.960938H1.93597C2.18914 0.960938 2.41253 0.990423 2.59124 1.0494C2.76994 1.10837 2.94867 1.18209 3.0827 1.28529C3.23163 1.38849 3.35076 1.50644 3.45501 1.63913C3.55926 1.77182 3.64861 1.934 3.73797 2.09617L6.65683 7.62492L8.89067 2.09617C8.96513 1.90451 9.03961 1.74233 9.14386 1.60964C9.23321 1.47695 9.35232 1.35901 9.48635 1.2558C9.62038 1.1526 9.78422 1.07888 9.97782 1.03465C10.1714 0.990423 10.4097 0.960938 10.7075 0.960938H12.1372Z" fill="#AEA6E1"/>
<path d="M16.9028 3.42285C17.4538 3.42285 17.9601 3.49657 18.392 3.65874C18.8239 3.82092 19.1962 4.05681 19.5089 4.35168C19.8216 4.66129 20.045 5.02987 20.2088 5.45743C20.3727 5.88498 20.4471 6.38626 20.4471 6.93176C20.4471 7.47726 20.3727 7.97854 20.2088 8.40609C20.045 8.83365 19.8067 9.20223 19.5089 9.51184C19.1962 9.82145 18.8239 10.0426 18.392 10.2048C17.9601 10.367 17.4538 10.4407 16.9028 10.4407C16.3517 10.4407 15.8454 10.367 15.4135 10.2048C14.9817 10.0426 14.6094 9.80671 14.2966 9.51184C13.9839 9.20223 13.7605 8.83365 13.5967 8.40609C13.4329 7.97854 13.3584 7.47726 13.3584 6.93176C13.3584 6.38626 13.4329 5.88498 13.5967 5.45743C13.7605 5.02987 13.9988 4.66129 14.2966 4.35168C14.6094 4.04207 14.9817 3.82092 15.4135 3.65874C15.8454 3.49657 16.3369 3.42285 16.9028 3.42285ZM16.9028 10.19C17.0517 10.19 17.2006 10.1458 17.3644 10.0426C17.5133 9.9394 17.6474 9.77722 17.7665 9.52658C17.8856 9.27595 17.9899 8.95159 18.0644 8.53878C18.1388 8.11123 18.1835 7.58047 18.1835 6.9465C18.1835 6.2978 18.1388 5.76704 18.0644 5.35423C17.9899 4.94141 17.8856 4.60232 17.7665 4.36642C17.6474 4.13053 17.5133 3.95361 17.3644 3.85041C17.2155 3.74721 17.0666 3.70298 16.9028 3.70298C16.7538 3.70298 16.6049 3.74721 16.4411 3.85041C16.2922 3.95361 16.1581 4.11579 16.039 4.36642C15.9198 4.61706 15.8156 4.94141 15.7412 5.35423C15.6667 5.78178 15.622 6.31254 15.622 6.9465C15.622 7.59521 15.6667 8.12597 15.7412 8.53878C15.8156 8.95159 15.9198 9.29069 16.039 9.52658C16.1581 9.76248 16.2922 9.9394 16.4411 10.0426C16.59 10.1311 16.7389 10.19 16.9028 10.19Z" fill="#AEA6E1"/>
<path d="M26.9547 0.960938C27.7589 0.960938 28.161 1.35901 28.161 2.15515V9.85116L28.9652 10.0428V10.2345H27.7589C27.4313 10.2345 27.1781 10.1903 26.9845 10.0871C26.7909 9.98385 26.6271 9.8659 26.5228 9.74796C26.3888 9.60052 26.2846 9.4236 26.225 9.24668C26.1059 9.48258 25.9569 9.67424 25.7782 9.85116C25.6293 9.99859 25.4208 10.1313 25.1676 10.264C24.9145 10.3967 24.6166 10.4556 24.2741 10.4556C23.8869 10.4556 23.5295 10.3819 23.2018 10.2345C22.8593 10.0871 22.5764 9.8659 22.3381 9.57103C22.0998 9.27617 21.8914 8.90759 21.7573 8.48003C21.6084 8.03773 21.5488 7.53646 21.5488 6.94672C21.5488 6.35699 21.6233 5.85572 21.7573 5.41342C21.9063 4.97112 22.0998 4.61728 22.3679 4.32241C22.6211 4.02755 22.9338 3.8064 23.2912 3.65896C23.6487 3.51153 24.0507 3.43781 24.4975 3.43781C24.7358 3.43781 24.9443 3.4673 25.1379 3.51153C25.3315 3.5705 25.4953 3.62948 25.6293 3.7032C25.7931 3.77691 25.9271 3.86537 26.0463 3.96858V1.3885L25.2421 1.19683V1.00517H26.9547V0.960938ZM26.0165 4.3519C25.9123 4.2487 25.8229 4.16024 25.7038 4.08652C25.5995 4.01281 25.4953 3.95383 25.3761 3.89486C25.257 3.83588 25.1379 3.82114 25.0038 3.82114C24.84 3.82114 24.6762 3.86537 24.5273 3.95383C24.3784 4.04229 24.2592 4.18972 24.1401 4.41087C24.0358 4.63202 23.9465 4.95638 23.8869 5.35444C23.8274 5.76726 23.7976 6.28327 23.7976 6.93198C23.7976 7.56594 23.8274 8.06722 23.8869 8.46529C23.9465 8.86336 24.021 9.17296 24.1252 9.39411C24.2146 9.61526 24.3188 9.77744 24.4528 9.85116C24.572 9.92487 24.6911 9.9691 24.8102 9.9691C25.0187 9.9691 25.1974 9.91013 25.3463 9.80693C25.4953 9.70372 25.6144 9.57103 25.7186 9.43834C25.8378 9.27617 25.9421 9.09925 26.0314 8.90758V4.3519H26.0165Z" fill="#AEA6E1"/>
<path d="M33.4479 10.4563C32.3012 10.4563 31.4077 10.1467 30.7822 9.52747C30.1419 8.90825 29.8291 8.03839 29.8291 6.94738C29.8291 6.40188 29.9036 5.90061 30.0674 5.47305C30.2312 5.0455 30.4546 4.67691 30.7376 4.3673C31.0205 4.05769 31.363 3.83655 31.78 3.67437C32.1821 3.51219 32.6288 3.43848 33.1203 3.43848C33.6266 3.43848 34.0734 3.51219 34.4606 3.64488C34.8627 3.79232 35.1903 3.98398 35.4733 4.21987C35.7562 4.45577 35.9647 4.73589 36.1136 5.06024C36.2626 5.3846 36.337 5.72369 36.337 6.09227C36.337 6.21022 36.337 6.32817 36.3221 6.41663C36.3072 6.50509 36.2924 6.59355 36.2775 6.66726C36.2477 6.75572 36.2328 6.82944 36.203 6.88841C35.8158 6.96213 35.3988 7.03585 34.952 7.08008C34.5797 7.13905 34.1479 7.18328 33.6564 7.21276C33.165 7.24225 32.6586 7.27174 32.1225 7.27174C32.1225 7.81724 32.1672 8.27429 32.2416 8.64287C32.3161 9.01145 32.4352 9.30632 32.5693 9.51272C32.7182 9.73387 32.882 9.88131 33.0756 9.96977C33.2692 10.0582 33.4926 10.1025 33.716 10.1025C33.9841 10.1025 34.2372 10.0582 34.4755 9.95502C34.7137 9.85182 34.9222 9.73387 35.0861 9.5717C35.2648 9.40952 35.3988 9.21786 35.503 9.01145C35.6073 8.80505 35.652 8.59864 35.652 8.37749H35.9796C35.9796 8.64287 35.92 8.8935 35.8009 9.14414C35.6818 9.39478 35.5031 9.61593 35.2797 9.80759C35.0563 9.99925 34.7882 10.1467 34.4755 10.2646C34.1776 10.3973 33.8351 10.4563 33.4479 10.4563ZM32.1076 6.93264C32.4055 6.93264 32.6735 6.93264 32.9118 6.9179C33.1501 6.90316 33.3437 6.88841 33.5075 6.87367C33.7011 6.85893 33.85 6.82944 33.984 6.81469C33.9989 6.72623 34.0287 6.62303 34.0436 6.51983C34.0585 6.41663 34.0734 6.31342 34.0883 6.19548C34.1032 6.07753 34.1032 5.94484 34.1032 5.81215C34.1032 5.41408 34.0734 5.07499 34.0138 4.80961C33.9542 4.54423 33.8798 4.32307 33.7755 4.14616C33.6862 3.98398 33.5819 3.85129 33.4479 3.79232C33.3139 3.73334 33.2096 3.68911 33.0905 3.68911C32.9714 3.68911 32.8522 3.73334 32.7331 3.8218C32.614 3.91026 32.5097 4.07244 32.4055 4.29359C32.3161 4.52948 32.2268 4.85383 32.1672 5.28139C32.1076 5.70895 32.1076 6.25445 32.1076 6.93264Z" fill="#AEA6E1"/>
<path d="M41.9664 3.88002C41.6984 3.88002 41.4601 3.93899 41.2516 4.04219C41.0431 4.1454 40.8644 4.27809 40.7155 4.41078C40.5517 4.57295 40.4176 4.74987 40.2836 4.94154V9.85106L41.0878 10.0427V10.2344H37.335V10.0427L38.1392 9.85106V4.01271L37.335 3.82104V3.62938H38.5412C38.854 3.62938 39.1071 3.68835 39.3156 3.79156C39.5092 3.89476 39.673 4.01271 39.7922 4.13065C39.9262 4.27809 40.0305 4.44026 40.09 4.61718C40.2241 4.42552 40.3879 4.2486 40.5815 4.08642C40.7453 3.95373 40.9538 3.83579 41.207 3.71784C41.4601 3.59989 41.7431 3.55566 42.0856 3.55566C42.5621 3.55566 42.9196 3.67361 43.1578 3.88002C43.3961 4.10117 43.5003 4.41078 43.5003 4.80885C43.5003 5.10371 43.411 5.35435 43.2323 5.53127C43.0536 5.70819 42.8004 5.79665 42.5026 5.79665C42.4281 5.79665 42.3685 5.79665 42.2941 5.79665C42.2196 5.79665 42.1749 5.78191 42.1303 5.78191C42.0707 5.76716 42.0111 5.76716 41.9664 5.73767V3.88002Z" fill="#AEA6E1"/>
<path d="M49.2633 5.6052C49.2633 5.31033 49.2335 5.04496 49.1739 4.82381C49.1143 4.60266 49.0399 4.42574 48.9357 4.29305C48.8463 4.14561 48.7421 4.04241 48.608 3.98344C48.4889 3.92446 48.3697 3.88023 48.2506 3.88023C48.0421 3.88023 47.8634 3.93921 47.7145 4.04241C47.5656 4.14561 47.4316 4.2783 47.3422 4.41099C47.2231 4.57317 47.1337 4.75009 47.0443 4.94175V9.85128L47.8485 10.0429V10.2346H44.0957V10.0429L44.8999 9.85128V4.01292L44.0957 3.82126V3.6296H45.302C45.6147 3.6296 45.8679 3.68857 46.0764 3.79177C46.27 3.89498 46.4338 4.01292 46.5529 4.13087C46.6869 4.2783 46.7912 4.44048 46.8507 4.6174C46.9699 4.39625 47.1188 4.18984 47.2975 4.01292C47.4464 3.86549 47.6549 3.7328 47.8932 3.60011C48.1315 3.46742 48.4442 3.40845 48.8016 3.40845C49.1888 3.40845 49.5463 3.46742 49.859 3.60011C50.1866 3.71806 50.4547 3.89498 50.678 4.08664C50.9014 4.29305 51.0802 4.5142 51.2142 4.77958C51.3482 5.04496 51.4078 5.31033 51.4078 5.59046V9.83653L52.2119 10.0282V10.2199H50.4696C49.6654 10.2199 49.2633 9.82179 49.2633 9.02565V5.6052Z" fill="#AEA6E1"/>
<path d="M1.41504 19.5523V19.0068H11.7651V19.5523L9.59086 20.0978V31.229H17.3944V20.0978L15.2201 19.5523V19.0068H25.5703V19.5523L23.396 20.0978V43.0974L25.5703 43.6429V44.1884H15.2201V43.6282L17.3944 43.0827V32.1284H9.59086V43.0827L11.7651 43.6282V44.1737H1.41504V43.6282L3.58929 43.0827V20.0831L1.41504 19.5523Z" fill="#AEA6E1"/>
<path d="M38.4368 25.656C39.9409 25.656 41.2812 25.8772 42.4726 26.3047C43.6639 26.7323 44.6617 27.3662 45.4957 28.1919C46.3297 29.0175 46.97 30.02 47.4019 31.1995C47.8338 32.379 48.0572 33.7059 48.0572 35.1949C48.0572 36.684 47.8338 38.0109 47.4019 39.1904C46.97 40.3698 46.3297 41.3576 45.4957 42.1833C44.6617 43.0089 43.6491 43.6429 42.4726 44.0704C41.2812 44.498 39.9409 44.7191 38.4368 44.7191C36.9327 44.7191 35.5924 44.498 34.401 44.0704C33.2096 43.6429 32.2118 43.0089 31.3779 42.1833C30.5439 41.3576 29.9035 40.3551 29.4717 39.1904C29.0398 38.0109 28.8164 36.684 28.8164 35.1949C28.8164 33.7059 29.0398 32.379 29.4717 31.1995C29.9035 30.02 30.5439 29.0322 31.3779 28.1919C32.2118 27.3515 33.2245 26.7323 34.401 26.3047C35.5924 25.8772 36.9327 25.656 38.4368 25.656ZM38.4368 43.9819C38.8538 43.9819 39.2559 43.8493 39.6729 43.5839C40.0898 43.3185 40.4472 42.8615 40.7749 42.198C41.1025 41.5346 41.3706 40.6352 41.5791 39.5C41.7876 38.3647 41.8918 36.9199 41.8918 35.1654C41.8918 33.411 41.7876 31.9661 41.5791 30.8309C41.3706 29.6957 41.1025 28.7963 40.7749 28.1329C40.4472 27.4694 40.075 27.0124 39.6729 26.747C39.2708 26.4816 38.8538 26.3489 38.4368 26.3489C38.0198 26.3489 37.6177 26.4816 37.2007 26.747C36.7838 27.0124 36.4263 27.4694 36.0987 28.1329C35.7711 28.7963 35.503 29.6957 35.2945 30.8309C35.086 31.9661 34.9818 33.411 34.9818 35.1654C34.9818 36.9199 35.086 38.3647 35.2945 39.5C35.503 40.6352 35.7711 41.5346 36.0987 42.198C36.4263 42.8615 36.7987 43.3185 37.2007 43.5839C37.6177 43.8493 38.0198 43.9819 38.4368 43.9819Z" fill="#AEA6E1"/>
<path d="M75.2653 31.5833C75.2653 30.7281 75.1909 29.991 75.042 29.416C74.893 28.841 74.7143 28.3545 74.4761 27.9859C74.2378 27.6173 73.9846 27.3519 73.7165 27.175C73.4336 27.0128 73.1655 26.9244 72.8975 26.9244C72.4358 26.9244 72.0337 27.0718 71.6763 27.3667C71.3189 27.6615 71.0211 28.0006 70.753 28.3545C70.47 28.782 70.202 29.2686 69.9935 29.7846V43.083L72.1826 43.6285V44.174H62.0261V43.6285L64.2004 43.083V31.5833C64.2004 30.7281 64.1259 29.991 63.977 29.416C63.8281 28.841 63.6494 28.3545 63.4111 27.9859C63.1728 27.6173 62.9197 27.3519 62.6516 27.175C62.3687 27.0128 62.1006 26.9244 61.8325 26.9244C61.3709 26.9244 60.9688 27.0718 60.6114 27.3667C60.254 27.6615 59.9561 28.0006 59.688 28.3545C59.3902 28.782 59.137 29.2686 58.9286 29.7846V43.083L61.1028 43.6285V44.174H50.9463V43.6285L53.1206 43.083V27.2782L50.9463 26.7327V26.1872H54.2077C55.0566 26.1872 55.7565 26.3346 56.2926 26.6148C56.8436 26.8949 57.2606 27.2192 57.5883 27.5436C57.9457 27.9564 58.2137 28.3987 58.3924 28.8705C58.7051 28.266 59.0923 27.7353 59.554 27.2487C59.971 26.8359 60.4774 26.4673 61.073 26.1282C61.6836 25.7891 62.4133 25.627 63.292 25.627C64.7365 25.627 66.0023 25.9513 67.0448 26.5853C68.1021 27.2192 68.9064 28.0449 69.4574 29.0474C69.7701 28.4282 70.1573 27.8679 70.619 27.3519C71.036 26.9244 71.5423 26.5263 72.138 26.1725C72.7485 25.8186 73.4783 25.627 74.3569 25.627C75.3547 25.627 76.2482 25.7891 77.0822 26.0987C77.9013 26.4083 78.6161 26.8359 79.2118 27.3814C79.8075 27.9269 80.2691 28.5461 80.5967 29.2686C80.9244 29.991 81.0882 30.7576 81.0882 31.5685V43.0683L83.2625 43.6138V44.1593H78.5416C76.3673 44.1593 75.2802 43.083 75.2802 40.9305V31.5833H75.2653Z" fill="#AEA6E1"/>
<path d="M95.2356 44.7047C92.1381 44.7047 89.7255 43.8643 88.0129 42.1689C86.3003 40.4734 85.4365 38.1587 85.4365 35.1805C85.4365 33.6914 85.6599 32.3646 86.0918 31.1851C86.5237 30.0056 87.1342 29.0178 87.9086 28.1774C88.683 27.3518 89.6213 26.7179 90.7233 26.2903C91.8253 25.8627 93.0316 25.6416 94.3272 25.6416C95.6824 25.6416 96.9036 25.8333 97.9758 26.2166C99.0481 26.5999 99.9714 27.1159 100.716 27.7646C101.461 28.4133 102.041 29.18 102.443 30.0498C102.846 30.9197 103.039 31.8485 103.039 32.8363C103.039 33.1754 103.024 33.4703 102.98 33.7209C102.935 33.9716 102.905 34.1927 102.846 34.3844C102.771 34.6203 102.712 34.8267 102.667 34.9889C101.595 35.21 100.478 35.3869 99.2863 35.5344C98.2737 35.6818 97.0972 35.7997 95.7717 35.9177C94.4463 36.0209 93.0465 36.0799 91.6019 36.0799C91.6019 37.5689 91.7062 38.8074 91.9296 39.7952C92.1529 40.783 92.4508 41.5791 92.838 42.1689C93.2252 42.7586 93.6868 43.1714 94.2229 43.422C94.7591 43.6727 95.3399 43.8054 95.9653 43.8054C96.6951 43.8054 97.3801 43.6727 98.0205 43.4073C98.6609 43.1419 99.2119 42.7881 99.6884 42.3458C100.165 41.9035 100.537 41.4022 100.82 40.842C101.103 40.2817 101.237 39.7067 101.237 39.1317H102.146C102.146 39.8542 101.982 40.5471 101.654 41.2105C101.327 41.8887 100.865 42.4785 100.254 42.9945C99.6437 43.5105 98.9289 43.9233 98.0801 44.2329C97.2163 44.5425 96.2632 44.7047 95.2356 44.7047ZM91.6019 35.1805C92.421 35.1805 93.1507 35.1658 93.7762 35.1216C94.4017 35.0773 94.9378 35.0478 95.3697 35.0036C95.876 34.9594 96.3079 34.9004 96.6802 34.8267C96.7249 34.5908 96.7844 34.3254 96.8589 34.0305C96.9036 33.7652 96.9482 33.4703 96.978 33.1459C97.0078 32.8216 97.0376 32.4825 97.0376 32.1287C97.0376 31.0524 96.9482 30.1531 96.7844 29.4159C96.6206 28.6787 96.3972 28.089 96.144 27.6319C95.8909 27.1749 95.5931 26.8506 95.2803 26.6589C94.9527 26.4672 94.625 26.364 94.3123 26.364C93.9995 26.364 93.6719 26.482 93.3443 26.7031C93.0167 26.939 92.7337 27.3666 92.4806 28.0005C92.2274 28.6345 92.0189 29.5338 91.8402 30.6838C91.6913 31.8338 91.6019 33.3376 91.6019 35.1805Z" fill="#AEA6E1"/>
<path d="M120.865 43.805V29.2239L107.85 19.0215V43.805H120.865Z" fill="#AEA6E1"/>
<path d="M136.964 43.805V29.2239L124.156 19.0215V43.805H136.964Z" fill="#AEA6E1"/>
</svg>
