<svg width="152" height="46" viewBox="0 0 152 46" fill="none" xmlns="http://www.w3.org/2000/svg">
<path d="M21.278 9.20395L22.3949 8.96805C22.6778 8.96805 22.9161 9.02703 23.0799 9.14497C23.2437 9.26292 23.3331 9.38087 23.3331 9.48407C23.3331 9.58727 23.3033 9.74945 23.2586 9.94111C23.214 10.1328 22.797 12.1084 22.0226 15.8384C21.2482 19.5685 20.6823 22.355 20.3249 24.1832C22.0524 21.8537 24.0777 18.9935 26.386 15.5878C28.6943 12.1821 30.0495 9.92637 30.4367 8.80588C30.5558 8.45204 30.7196 8.18666 30.9132 7.99499C31.1068 7.80333 31.2856 7.68539 31.4345 7.6559C31.5834 7.62641 31.8217 7.59692 32.1344 7.59692C32.4472 7.59692 32.8195 7.67064 33.2513 7.80333C33.6832 7.93602 33.9066 8.15717 33.9066 8.48152C33.9066 9.07126 33.013 10.7962 31.2409 13.6269C29.4687 16.4577 27.4285 19.4653 25.1351 22.6498C22.8417 25.8344 20.9354 28.3555 19.4015 30.2132C19.1335 30.5375 18.791 30.7144 18.4038 30.7144C18.0166 30.7144 17.5996 30.6407 17.1677 30.508C16.7358 30.3754 16.5124 30.1395 16.5124 29.7856C16.5124 28.6799 17.4953 23.3428 19.4611 13.8039C17.7783 15.9564 15.738 18.964 13.3404 22.812C10.8385 26.7927 9.42375 29.2696 9.09612 30.2132C8.91741 30.7882 8.70892 31.1273 8.47065 31.2157C8.30683 31.2894 8.12812 31.3189 7.94941 31.3189L6.74314 31.4516C6.50487 31.4516 6.29637 31.3926 6.08788 31.2599C5.89428 31.1273 5.79004 30.9946 5.79004 30.8471C5.79004 30.4491 6.35595 29.2401 7.47287 27.235C8.58979 25.2299 9.91519 23.0479 11.4193 20.689C12.9234 18.3301 14.4871 16.0448 16.1253 13.8186C17.7634 11.5924 19.0292 10.0885 19.9228 9.33664C20.1015 9.17446 20.31 9.10074 20.5483 9.10074L21.278 9.20395Z" fill="#AEA6E1"/>
<path d="M39.1779 19.2C39.9523 19.2 40.3395 19.4654 40.3395 19.9814C40.3395 20.2616 40.28 20.468 40.1459 20.6006C40.0119 20.7333 39.729 21.1609 39.2971 21.9128C38.8652 22.65 38.3886 23.5935 37.8674 24.7583C37.3462 25.9082 37.0037 26.896 36.8548 27.7069C36.825 27.8101 36.8101 27.9428 36.8101 28.1345C36.8101 28.6947 36.959 28.9601 37.2717 28.9601C37.5845 28.9601 37.9419 28.8127 38.3589 28.5326C38.7759 28.2377 39.1482 27.9428 39.4758 27.6037C39.8034 27.2794 40.1162 26.9403 40.4289 26.6012C40.7416 26.2621 40.9203 26.0557 40.9799 26.0114C41.0395 25.9672 41.1288 25.9377 41.248 25.9377C41.4416 25.9377 41.5607 26.0852 41.6054 26.38C41.6501 26.6749 41.6649 26.9698 41.6649 27.2941C41.6649 27.6185 41.6352 27.8249 41.5756 27.9428C41.2778 28.5178 40.6374 29.2107 39.6247 30.0216C38.6269 30.8325 37.7036 31.2306 36.8846 31.2306C36.0655 31.2306 35.4549 30.9799 35.0826 30.4934C34.7103 30.0069 34.5018 29.4466 34.5018 28.8569C34.5018 28.2524 34.606 27.7364 34.8145 27.2794C33.9657 28.3704 32.9977 29.2845 31.9105 30.0511C30.8085 30.803 29.9299 31.1863 29.2299 31.1863C28.53 31.1863 27.979 30.9799 27.5322 30.5671C26.9663 30.0511 26.6982 29.3434 26.6982 28.4293C26.6982 27.5153 26.9067 26.6012 27.3237 25.6723C27.7407 24.7583 28.2768 23.9031 28.947 23.1512C29.6171 22.3846 30.3617 21.6916 31.1659 21.0724C32.8487 19.7603 34.4124 19.1116 35.8421 19.1116C36.3931 19.1116 36.8399 19.2 37.1824 19.377C37.5249 19.5539 37.7483 19.7898 37.8377 20.0551C38.0759 19.6866 38.2844 19.4654 38.4631 19.3622C38.5972 19.2443 38.8503 19.2 39.1779 19.2ZM37.1526 20.8808C35.4102 20.8808 33.6082 21.8391 31.7467 23.7557C31.0915 24.4486 30.4809 25.2595 29.915 26.2179C29.3491 27.1762 29.081 27.8249 29.081 28.1787C29.081 28.5325 29.1853 28.7095 29.3938 28.7095C29.6767 28.7095 30.466 28.1492 31.7765 27.0435C33.087 25.9377 33.9508 25.1121 34.3678 24.5813C34.8443 23.9916 35.7676 22.7532 37.1526 20.8808Z" fill="#AEA6E1"/>
<path d="M50.7649 11.2092L51.3904 11.3567C51.4797 11.3567 51.5691 11.4009 51.6286 11.4894C51.7031 11.5778 51.7329 11.6663 51.7329 11.74C51.7329 11.8137 51.6286 12.0349 51.4053 12.3887C51.1819 12.7425 50.9436 13.1406 50.6457 13.5829C50.3479 14.0252 50.199 14.2758 50.1841 14.3201C50.9734 14.2611 51.5393 14.2316 51.8669 14.2316C52.1945 14.2316 52.4179 14.2611 52.5519 14.3053C52.6711 14.3496 52.82 14.4822 52.9689 14.6887C53.1327 14.8951 53.2668 15.0572 53.4008 15.1604C53.5348 15.2636 53.5944 15.4258 53.5944 15.6322C53.5944 15.8386 53.4604 16.0303 53.2072 16.163C52.954 16.3104 52.6711 16.3989 52.3732 16.4284C50.0054 16.6643 48.7098 16.7822 48.4715 16.7969C47.6524 18.0501 46.4908 19.9962 45.0165 22.6353C43.5421 25.2744 42.7529 26.9403 42.6635 27.6038C42.6188 27.9134 42.6039 28.1493 42.6039 28.341C42.6039 28.739 42.8124 28.9307 43.2294 28.9307C43.6464 28.9307 44.108 28.7685 44.6144 28.4589C45.1207 28.1346 45.5973 27.7955 46.0143 27.4269C47.161 26.4243 47.7716 25.9083 47.846 25.9083C48.1141 25.9083 48.2481 26.3654 48.2481 27.2647C48.2481 27.7512 48.0247 28.1935 47.5631 28.5916C46.5355 29.4615 45.6717 30.1249 44.9718 30.5672C44.2719 31.0095 43.5719 31.2307 42.8571 31.2307C42.7082 31.2307 42.5593 31.2159 42.4252 31.1864C41.6062 31.039 41.0105 30.7441 40.6382 30.3018C40.251 29.8595 40.0723 29.2698 40.0723 28.5326C40.0723 27.7955 40.2956 26.8814 40.7424 25.8199C41.1892 24.7583 41.7402 23.6231 42.4103 22.4289C43.5124 20.468 44.6144 18.6399 45.7015 16.9296L45.1207 17.0034C43.9442 17.136 43.2592 17.195 43.0656 17.195H42.9316C42.6337 17.195 42.3508 17.136 42.0827 17.0181C41.8146 16.9001 41.6657 16.7527 41.6657 16.5905C41.6657 16.4136 41.7402 16.2514 41.8891 16.0893C42.038 15.9271 42.1274 15.7944 42.1572 15.7059C42.2316 15.4848 42.4997 15.2342 42.9613 14.9688C43.423 14.7034 43.7655 14.556 44.0038 14.5412C44.2421 14.5265 44.4655 14.5117 44.6888 14.497C44.9122 14.4822 45.1505 14.4822 45.4186 14.4675C45.6866 14.4528 45.8951 14.4528 46.044 14.438L47.4141 14.379C48.263 13.1111 48.8587 12.2855 49.1714 11.9317C49.4991 11.5631 49.6778 11.3714 49.7224 11.3419C49.7671 11.3124 49.8713 11.2829 50.0352 11.2829L50.7649 11.2092Z" fill="#AEA6E1"/>
<path d="M59.9235 25.9374C60.1171 25.9374 60.2362 26.0849 60.2809 26.3797C60.3256 26.6746 60.3405 26.9695 60.3405 27.2938C60.3405 27.6182 60.3107 27.8246 60.2511 27.9425C59.9533 28.5028 59.3129 29.1957 58.3152 30.0066C57.3174 30.8175 56.3643 31.2303 55.4707 31.2303C54.9197 31.2303 54.4134 31.0681 53.9368 30.7437C53.4752 30.4194 53.2369 29.8444 53.2369 29.0335C53.2369 28.2226 53.4603 27.4118 53.8922 26.6304C51.3605 29.7707 49.3947 31.3335 47.9502 31.3335C47.3842 31.3335 46.9226 31.1271 46.5652 30.729C46.2078 30.3309 46.0439 29.9181 46.0439 29.4758C46.0439 29.0483 46.1035 28.606 46.2226 28.1489C46.3418 27.6919 46.4758 27.2791 46.6099 26.9105C46.7439 26.5419 46.9524 26.0996 47.2204 25.5688C47.4885 25.0381 47.697 24.6548 47.8161 24.4041C47.9353 24.1535 48.1586 23.7996 48.4565 23.3131C48.7543 22.8266 49.1266 22.1631 49.6032 21.3375C50.0797 20.5119 50.4669 19.8927 50.7797 19.4946C51.0924 19.0965 51.3902 18.8901 51.6881 18.8901C51.9859 18.8901 52.2391 19.0081 52.4625 19.244C52.6859 19.4799 52.805 19.6863 52.805 19.8337C52.805 19.9811 52.4625 20.6593 51.7775 21.8683C49.767 25.4804 48.7543 27.5739 48.7543 28.1784C48.7543 28.3258 48.8139 28.3996 48.9181 28.3996C49.4096 28.3996 50.6308 27.3528 52.5668 25.2592C54.5027 23.1657 55.6345 21.824 55.9473 21.2343C56.26 20.6446 56.543 20.1433 56.8408 19.7452C57.1238 19.3472 57.3472 19.0965 57.4961 19.0081C57.928 18.7279 58.4939 18.5805 59.1938 18.551C59.3129 18.551 59.3874 18.551 59.447 18.5658C59.5065 18.5805 59.581 18.669 59.6555 18.8164C59.7299 18.9638 59.7746 19.0965 59.7746 19.1997C59.6852 19.4799 59.2831 20.2318 58.5534 21.4555C57.8386 22.6792 57.4365 23.3721 57.3621 23.5195C56.1558 25.9817 55.5601 27.5887 55.5601 28.3258C55.5601 28.7534 55.7239 28.9598 56.0515 28.9598C56.6472 28.8861 57.3621 28.4143 58.196 27.5592C58.5088 27.2496 58.8066 26.9252 59.1044 26.6009C59.4023 26.2765 59.5959 26.0849 59.6555 26.0406C59.7299 25.9669 59.8193 25.9374 59.9235 25.9374Z" fill="#AEA6E1"/>
<path d="M64.346 22.4436C66.7437 19.7456 68.7988 18.3892 70.4816 18.3892C70.8986 18.3892 71.2412 18.5071 71.5092 18.7578C71.7773 19.0084 71.9113 19.318 71.9113 19.7161C71.9113 20.1142 71.6283 20.7629 71.0624 21.6917C70.4965 22.6058 69.9753 23.3872 69.4988 24.0211C69.2456 24.3455 68.9626 24.5077 68.635 24.5077C68.3223 24.5077 68.0691 24.3897 67.8904 24.1538C67.7117 23.9179 67.6223 23.6526 67.6223 23.343C67.6223 22.65 67.9946 21.8539 68.7541 20.984L68.7243 20.9545C68.3818 20.984 67.5628 21.6475 66.2225 22.9154C64.8971 24.1981 63.7652 25.348 62.827 26.3506C61.9037 27.3679 60.891 28.5916 59.789 30.0512C59.4763 30.4787 59.2082 30.6999 58.9848 30.6999C58.7615 30.6999 58.4785 30.6262 58.1211 30.4935C57.7637 30.3608 57.5403 30.2576 57.4658 30.1986C57.3914 30.1396 57.3467 30.0364 57.3467 29.889C57.3467 29.7563 57.3914 29.5794 57.4658 29.4025C57.5403 29.2108 57.7041 28.9454 57.9126 28.6063C58.1211 28.2672 58.4636 27.707 58.9104 26.9403C59.3571 26.1737 60.0422 25.009 60.9804 23.4609C61.9186 21.9129 62.4696 20.9693 62.6632 20.6449C63.0504 19.9815 63.3632 19.4949 63.6163 19.2001C64.078 18.6251 64.8524 18.345 65.9395 18.345C66.1778 18.345 66.3118 18.4924 66.3118 18.802C66.3118 19.2738 65.865 20.1731 64.9864 21.4706L64.346 22.4436Z" fill="#AEA6E1"/>
<path d="M80.7727 19.3772C80.7727 20.0407 80.5046 20.6304 79.9536 21.1317C79.4026 21.633 78.792 21.8836 78.0921 21.8836C77.8687 21.8836 77.7198 21.8246 77.6453 21.7214C77.5709 21.6182 77.5411 21.4708 77.5411 21.3086C77.5411 21.1464 77.556 20.9695 77.6007 20.8073C77.2283 20.9253 76.8262 21.1169 76.3795 21.3676C75.9327 21.6182 75.3817 21.9868 74.7264 22.4881C74.0712 22.9893 73.7436 23.3432 73.7436 23.5938C73.7436 23.6675 73.8627 23.7118 74.101 23.7118C74.3392 23.7118 74.7116 23.6233 75.203 23.4611C75.6944 23.2989 76.0519 23.2105 76.2455 23.2105C76.4391 23.2105 76.5731 23.2252 76.6326 23.24C76.7667 23.3137 76.9007 23.4611 77.0645 23.697C77.2135 23.9329 77.2879 24.1246 77.2879 24.2573C77.2879 24.3899 77.1539 24.5669 76.8858 24.788C76.6178 25.0092 76.3199 25.1713 75.9923 25.2893C75.6498 25.4072 75.4264 25.4957 75.3221 25.5547C73.1777 26.7489 72.1054 27.5598 72.1054 28.0021C72.1054 28.7835 72.7756 29.1815 74.1308 29.1815C74.9945 29.1815 75.8731 28.9161 76.7369 28.3706C77.4815 27.9136 78.1517 27.4418 78.7474 26.9553C79.3431 26.4835 79.7153 26.1886 79.8792 26.0707C80.043 25.9527 80.1621 25.9085 80.2366 25.9085C80.5046 25.9085 80.6387 26.2034 80.6387 26.7931C80.6387 27.3828 80.6089 27.7662 80.5344 27.9431C80.46 28.1348 80.2664 28.3559 79.9238 28.636C77.7496 30.3905 75.6796 31.2751 73.7436 31.2751C72.7011 31.2751 71.882 31.1276 71.2565 30.8475C70.1098 30.3315 69.5439 29.5501 69.5439 28.4886C69.5439 27.1027 70.512 26.0412 72.4628 25.3335C72.0756 25.1566 71.8225 24.9502 71.7182 24.6701C71.5991 24.4047 71.5544 23.9771 71.5544 23.3874C71.5544 22.7977 71.8374 22.1785 72.3884 21.515C72.9394 20.8516 73.6244 20.3061 74.4286 19.8932C76.2157 18.9349 77.824 18.4631 79.2239 18.4631C79.5664 18.4631 79.8941 18.5369 80.2515 18.699C80.6089 18.8612 80.7727 19.0824 80.7727 19.3772Z" fill="#AEA6E1"/>
<path d="M115.531 9.11553H115.725C115.784 9.11553 115.829 9.11553 115.844 9.13027C115.859 9.14502 115.874 9.14502 115.903 9.15976C115.933 9.15976 115.948 9.1745 115.978 9.20399C116.023 9.24822 116.097 9.29245 116.186 9.33668C116.306 9.42514 116.365 9.52834 116.365 9.64629C116.365 9.76424 116.246 10.0149 116.008 10.3982C115.769 10.7815 115.159 11.7104 114.161 13.2142C111.883 16.6641 109.842 19.8782 108.04 22.8268C104.928 27.9575 103.349 30.5376 103.319 30.5671C103.29 30.5965 103.275 30.626 103.26 30.6555C103.245 30.7145 103.215 30.744 103.141 30.744L102.932 30.6997L102.515 30.803L102.277 30.7587L102.024 30.803H101.935L101.086 30.9209C100.579 30.9209 100.326 30.744 100.326 30.4049C100.326 30.2574 100.371 30.0805 100.46 29.8741C100.773 29.137 102.366 26.4684 105.226 21.839C103.349 21.8832 101.488 21.9127 99.656 21.9127L96.3797 21.898C95.8436 22.7531 95.099 23.9621 94.1608 25.5396C92.1354 28.9748 91.0632 30.6997 90.9291 30.7292C90.7951 30.7587 90.6909 30.7882 90.6015 30.7882C90.5122 30.7882 90.4377 30.744 90.3781 30.6408C90.3037 30.5523 90.259 30.4933 90.2292 30.4933C90.1994 30.4933 90.1547 30.5081 90.0654 30.5523C89.9909 30.5965 89.8718 30.6113 89.708 30.6113L89.3506 30.5965L89.2165 30.5081C89.2016 30.5081 89.1868 30.5228 89.1719 30.5523C89.157 30.5818 89.1123 30.5965 89.0527 30.5965C88.6208 30.5965 88.3975 30.4196 88.3975 30.051C88.3975 29.8151 88.4868 29.4908 88.6506 29.0927C88.8293 28.6947 89.0527 28.2671 89.3357 27.8101C89.6186 27.353 90.3334 26.2473 91.5099 24.5223C92.6715 22.7973 93.2523 21.9275 93.2523 21.9127C93.0587 21.898 92.8353 21.898 92.5822 21.8832C92.0609 21.8832 91.7035 21.8685 91.4801 21.8243C90.8993 21.7211 90.4973 21.2493 90.2888 20.4089C90.1696 19.9961 90.125 19.7307 90.1399 19.598C90.1399 19.3326 90.259 19.1852 90.4973 19.1852L90.8993 19.2884C91.1078 19.3032 91.5844 19.3179 92.3588 19.3621C93.1332 19.4064 93.6842 19.4211 94.0267 19.4211L94.8905 19.3916C96.2159 17.3423 97.7945 15.0129 99.6411 12.418C98.3008 13.509 96.8116 14.0545 95.1734 14.0545C94.399 14.0545 93.7289 13.8776 93.1779 13.509C92.612 13.1405 92.3439 12.6687 92.3439 12.1084C92.3439 11.5482 92.5524 11.1059 92.9843 10.7668C93.4161 10.4424 93.8182 10.2803 94.2054 10.2803C94.5926 10.2803 94.7862 10.3392 94.7862 10.4572C94.7862 10.5014 94.7267 10.5456 94.6224 10.5899C94.5182 10.6488 94.4586 10.6931 94.4586 10.7373C94.4586 10.8995 94.6373 11.0469 94.9947 11.1649C95.3521 11.2828 95.7542 11.3565 96.201 11.3565C96.6477 11.3565 97.1839 11.2238 97.8391 10.9732C98.4944 10.7226 99.1645 10.3835 99.8645 9.98539C100.847 9.42514 101.622 8.95335 102.188 8.58477C102.515 8.42259 102.813 8.34888 103.111 8.34888C103.409 8.34888 103.602 8.37836 103.736 8.45208C103.871 8.51105 103.96 8.58477 104.019 8.64374C104.079 8.70272 104.153 8.79118 104.213 8.89438C104.287 8.99758 104.347 9.08604 104.422 9.13027C104.481 9.18925 104.526 9.24822 104.526 9.32194C104.526 9.39565 104.481 9.49886 104.407 9.66103C104.332 9.80847 103.945 10.4277 103.245 11.5039C102.545 12.5802 101.637 13.9513 100.535 15.6173C99.4326 17.2833 98.6284 18.507 98.1221 19.3032C100.847 19.3032 103.781 19.2589 106.938 19.1557C110.78 13.1552 112.806 10.0149 113.014 9.72001C113.223 9.42514 113.416 9.23348 113.595 9.14502C113.774 9.05656 113.982 9.01233 114.235 9.01233L115.531 9.11553Z" fill="#AEA6E1"/>
<path d="M120.505 19.1706C120.818 19.1706 121.131 19.3033 121.444 19.5834C121.771 19.8636 121.92 20.2764 121.92 20.8366C121.92 21.3969 121.727 22.1193 121.324 23.0186C120.922 23.9032 120.386 24.8173 119.686 25.7461C119.001 26.6602 118.227 27.5301 117.408 28.341C116.574 29.1519 115.68 29.8153 114.727 30.3313C113.759 30.8473 112.895 31.1127 112.106 31.1127C111.317 31.1127 110.691 30.8621 110.215 30.3755C109.738 29.889 109.5 29.2108 109.5 28.341C109.5 27.4711 109.723 26.4981 110.155 25.4513C110.587 24.3898 111.138 23.4609 111.823 22.65C112.508 21.8392 113.238 21.1167 114.042 20.468C115.695 19.1411 117.155 18.4924 118.406 18.4924C118.971 18.4924 119.388 18.6251 119.671 18.9052C119.776 18.9937 119.82 19.0822 119.82 19.1411V19.2296C119.984 19.1706 120.208 19.1706 120.505 19.1706ZM118.971 21.1757H118.867C118.51 21.1757 118.331 20.9251 118.331 20.4091C117.586 20.645 116.812 21.0725 115.993 21.677C115.174 22.2815 114.444 23.0039 113.804 23.8295C112.493 25.4808 111.838 26.8814 111.823 28.0166C111.823 28.5769 112.032 28.857 112.449 28.857C112.866 28.857 113.491 28.5769 114.31 28.0461C115.129 27.5153 115.948 26.7339 116.767 25.7167C117.572 24.7141 118.182 23.8295 118.584 23.0924C118.986 22.3552 119.195 21.8539 119.195 21.5738C119.18 21.3084 119.105 21.1757 118.971 21.1757Z" fill="#AEA6E1"/>
<path d="M121.592 30.7733L120.848 30.7439H120.58C120.475 30.7144 120.371 30.6554 120.252 30.5669C120.133 30.4785 120.043 30.4048 119.984 30.3753C119.924 30.3458 119.895 30.2573 119.895 30.1541C119.895 30.0509 119.939 29.8593 120.014 29.6086C121.994 25.2888 123.915 21.8241 125.777 19.2441C125.985 18.9639 126.313 18.7428 126.76 18.5954C127.207 18.4479 127.653 18.3742 128.085 18.3742C128.338 18.3742 128.472 18.5659 128.472 18.9639C128.472 19.0819 128.428 19.2293 128.353 19.4062C128.279 19.5979 128.07 19.8928 127.743 20.3203C127.415 20.7479 127.028 21.2344 126.581 21.7652C126.134 22.2959 125.881 22.6203 125.822 22.7087C127.222 21.2786 128.472 20.2171 129.604 19.5094C130.736 18.8165 131.54 18.4627 132.047 18.4627C132.553 18.4627 132.94 18.6101 133.208 18.8902C133.476 19.1704 133.61 19.48 133.61 19.8043C133.61 20.1287 133.581 20.4088 133.536 20.6152C133.491 20.8363 133.402 21.0575 133.283 21.2934C133.164 21.5293 133.059 21.7357 132.97 21.8979C132.881 22.06 132.732 22.2812 132.538 22.5466C132.33 22.8119 132.196 23.0036 132.121 23.1068C132.047 23.21 131.883 23.4017 131.645 23.6818C131.406 23.9619 131.272 24.1241 131.257 24.1536C131.54 23.8735 131.942 23.4607 132.449 22.9004C132.955 22.3402 133.387 21.8831 133.744 21.5145C134.102 21.146 134.534 20.7184 135.07 20.2466C135.606 19.7748 136.097 19.3915 136.544 19.1114C137.646 18.4332 138.763 18.0793 139.895 18.0793C140.282 18.0793 140.61 18.1973 140.878 18.4479C141.146 18.6986 141.28 18.9787 141.28 19.3178C141.28 19.6569 140.863 20.4678 140.044 21.7357C139.225 23.0036 138.391 24.2863 137.572 25.569C136.753 26.8516 136.336 27.6625 136.336 28.0016C136.336 28.4586 136.425 28.7388 136.589 28.8272C136.767 28.9157 136.976 28.9452 137.214 28.9304C137.452 28.9157 137.81 28.7535 138.242 28.4586C138.689 28.1638 139.076 27.8689 139.418 27.5446C139.984 27.0433 140.491 26.5568 140.982 26.085C141.086 25.9965 141.19 25.9523 141.324 25.9523C141.518 25.9523 141.637 26.0997 141.682 26.3946C141.727 26.6894 141.741 26.9843 141.741 27.3087C141.741 27.633 141.712 27.8394 141.652 27.9574C141.354 28.5176 140.699 29.2106 139.701 30.0362C138.689 30.8471 137.721 31.2599 136.797 31.2599C136.678 31.2599 136.604 31.2599 136.559 31.2451C135.516 31.1419 134.787 30.8618 134.385 30.39C133.983 29.9182 133.789 29.358 133.789 28.724C133.789 28.0901 134.012 27.2939 134.459 26.3798C134.906 25.4657 135.382 24.6254 135.919 23.8882C136.455 23.151 136.931 22.4729 137.378 21.8684C137.825 21.2639 138.048 20.9395 138.048 20.8953C138.048 20.8511 138.003 20.8216 137.929 20.8216C137.616 20.8216 136.916 21.3229 135.814 22.3402C133.953 24.0651 132.344 25.7311 130.989 27.3234C130.632 27.751 129.783 28.8125 128.458 30.5374C128.309 30.7439 128.055 30.8471 127.728 30.8471C127.4 30.8471 127.058 30.7881 126.7 30.6554C126.343 30.5227 126.164 30.3605 126.164 30.1689C126.164 30.0657 126.968 28.6503 128.592 25.9228C130.215 23.1953 131.019 21.7062 131.019 21.4703C131.019 21.2197 130.87 21.1017 130.572 21.1017C130.274 21.1017 129.649 21.544 128.711 22.4286C126.134 24.8613 124.139 27.2939 122.724 29.6971C122.635 29.8445 122.456 30.0657 122.188 30.3605C121.92 30.6554 121.682 30.7733 121.592 30.7733Z" fill="#AEA6E1"/>
<path d="M151.123 19.3772C151.123 20.0407 150.855 20.6304 150.304 21.1317C149.753 21.633 149.143 21.8836 148.443 21.8836C148.219 21.8836 148.07 21.8246 147.996 21.7214C147.921 21.6182 147.892 21.4708 147.892 21.3086C147.892 21.1464 147.907 20.9695 147.951 20.8073C147.579 20.9253 147.177 21.1169 146.73 21.3676C146.283 21.6182 145.732 21.9868 145.077 22.4881C144.422 22.9893 144.094 23.3432 144.094 23.5938C144.094 23.6675 144.213 23.7118 144.452 23.7118C144.69 23.7118 145.062 23.6233 145.554 23.4611C146.045 23.2989 146.402 23.2105 146.596 23.2105C146.79 23.2105 146.924 23.2252 146.983 23.24C147.117 23.3137 147.251 23.4611 147.415 23.697C147.564 23.9329 147.638 24.1246 147.638 24.2573C147.638 24.3899 147.504 24.5669 147.236 24.788C146.968 25.0092 146.671 25.1713 146.343 25.2893C146 25.4072 145.777 25.4957 145.673 25.5547C143.528 26.7489 142.456 27.5598 142.456 28.0021C142.456 28.7835 143.126 29.1815 144.481 29.1815C145.345 29.1815 146.224 28.9161 147.087 28.3706C147.832 27.9136 148.502 27.4418 149.098 26.9553C149.694 26.4835 150.066 26.1886 150.23 26.0707C150.394 25.9527 150.513 25.9085 150.587 25.9085C150.855 25.9085 150.989 26.2034 150.989 26.7931C150.989 27.3828 150.959 27.7662 150.885 27.9431C150.811 28.1348 150.617 28.3559 150.274 28.636C148.1 30.3905 146.03 31.2751 144.094 31.2751C143.052 31.2751 142.233 31.1276 141.607 30.8475C140.46 30.3315 139.895 29.5501 139.895 28.4886C139.895 27.1027 140.863 26.0412 142.813 25.3335C142.426 25.1566 142.173 24.9502 142.069 24.6701C141.95 24.4047 141.905 23.9771 141.905 23.3874C141.905 22.7977 142.188 22.1785 142.739 21.515C143.29 20.8516 143.975 20.3061 144.779 19.8932C146.566 18.9349 148.175 18.4631 149.574 18.4631C149.917 18.4631 150.245 18.5369 150.602 18.699C150.959 18.8612 151.123 19.0824 151.123 19.3772Z" fill="#AEA6E1"/>
<path d="M0.161133 34.8571C4.07779 36.4789 8.0689 37.7321 12.1345 38.6904C16.1703 39.6929 20.2806 40.4006 24.3908 40.8429C26.4459 41.123 28.516 41.1525 30.5562 41.3442C32.6262 41.3589 34.6813 41.5211 36.7365 41.4032L39.8192 41.3294C40.8467 41.3147 41.8743 41.182 42.9019 41.123C43.9294 41.0346 44.957 40.9903 45.9697 40.8577L49.0226 40.4301C53.1179 39.9878 57.0942 39.0442 61.0555 37.909C65.0615 36.818 68.8441 35.3731 72.8502 33.8693C76.9455 32.3802 81.3834 31.4072 85.8809 31.879C88.0998 32.1591 90.3336 32.8668 92.1505 34.1642C93.9822 35.4469 95.2928 37.275 96.1267 39.1917C94.8758 37.4814 93.3121 36.0808 91.5101 35.211C89.7082 34.3411 87.7275 33.9873 85.7617 34.0462C81.7855 34.1052 77.8688 35.4174 74.1904 37.0686C70.4525 38.8968 66.4018 40.548 62.3213 41.9192C58.2111 43.2313 53.9668 44.2781 49.6629 44.8089C41.0999 45.9294 32.3284 45.9441 23.8696 44.2486C19.6253 43.482 15.4852 42.2878 11.4792 40.7692C7.50299 39.1917 3.61613 37.3487 0.161133 34.8571Z" fill="#AEA6E1"/>
<path d="M142.575 10.3099C139.254 8.90928 135.874 7.81827 132.448 6.96316C129.038 6.06382 125.583 5.42986 122.113 4.98756C120.386 4.72218 118.628 4.6632 116.901 4.4568C115.158 4.41257 113.431 4.23565 111.689 4.30936C110.825 4.32411 109.946 4.32411 109.082 4.30936C108.219 4.30936 107.34 4.39782 106.476 4.42731C105.613 4.48628 104.734 4.50103 103.87 4.58949L101.279 4.8991C97.809 5.17922 94.4434 5.8869 91.0777 6.75675C87.6674 7.56764 84.4358 8.71762 80.9957 9.86759C77.4662 11.0323 73.6389 11.74 69.7967 11.2092C67.9054 10.8996 65.9992 10.2362 64.495 9.05671C62.9611 7.89199 61.9187 6.29971 61.2783 4.63372C62.3357 6.0933 63.6462 7.28751 65.1503 8.02468C66.6544 8.76185 68.3075 9.07145 69.9605 9.05671C73.2964 9.05671 76.6024 7.99519 79.7298 6.66829C82.9167 5.16448 86.4164 3.83758 89.9012 2.74657C93.4158 1.6998 97.0793 0.903657 100.743 0.520331C108.055 -0.246322 115.531 -0.0694021 122.694 1.61134C126.283 2.36325 129.783 3.51322 133.133 4.92858C136.499 6.37343 139.746 8.05416 142.575 10.3099Z" fill="#AEA6E1"/>
</svg>
