<svg width="122" height="50" viewBox="0 0 122 50" fill="none" xmlns="http://www.w3.org/2000/svg">
<path d="M0.124023 30.6487V0.483887H18.0692V30.634H0.124023V30.6487ZM15.8949 23.6309L16.3566 20.2989L14.6886 20.1367L14.1823 22.7021C13.1398 23.2181 11.8591 23.4687 10.3252 23.4687C8.2403 23.4687 6.58725 22.82 5.38098 21.5079C4.15982 20.1957 3.56413 18.4707 3.56413 16.3182C3.56413 14.2247 4.15982 12.4997 5.33631 11.1433C6.51279 9.78692 8.06163 9.10873 9.98273 9.10873C10.9656 9.10873 11.7996 9.22667 12.4697 9.44782C13.1399 9.66897 13.7504 9.96384 14.3312 10.3472L14.8227 12.883L16.5204 12.7208L16.029 9.38885C15.3141 8.78438 14.4653 8.29785 13.4824 7.91452C12.4995 7.54594 11.2783 7.35427 9.83379 7.35427C8.12119 7.35427 6.64685 7.76709 5.4108 8.60745C4.17474 9.44782 3.20674 10.5536 2.5217 11.9247C1.83665 13.3106 1.49413 14.7996 1.49413 16.3919C1.49413 18.913 2.28341 21.0213 3.86199 22.7021C5.44057 24.3828 7.49569 25.2232 10.0423 25.2232C12.5442 25.2232 14.4951 24.6924 15.8949 23.6309Z" fill="#AEA6E1"/>
<path d="M24.1602 30.6487V0.483887H31.8743V30.634H24.1602V30.6487ZM24.9792 24.9578H31.0701V23.4392H28.9704V6.60237H24.9494V8.12092H27.079V23.4392H24.9792V24.9578Z" fill="#AEA6E1"/>
<path d="M37.9658 30.6487V0.483887H51.5178V30.634H37.9658V30.6487ZM40.423 13.9888L39.9912 16.731L41.5549 16.9227L42.0165 14.8734C42.6867 14.549 43.4462 14.3868 44.3397 14.3868C45.4119 14.3868 46.1417 14.6522 46.514 15.183C46.8863 15.7137 47.065 16.4067 47.065 17.2618V18.3233C46.7374 18.2938 46.3948 18.2643 46.0225 18.2496C45.6502 18.2348 45.2928 18.2201 44.9354 18.2201C43.5951 18.2201 42.3143 18.456 41.123 18.9278C39.9316 19.3996 39.3359 20.3874 39.3359 21.8764C39.3359 23.1444 39.738 24.0142 40.5571 24.486C41.3762 24.9725 42.1803 25.2084 42.9696 25.2084C43.9376 25.2084 44.7716 24.9578 45.4566 24.4565C46.1417 23.9552 46.6778 23.395 47.065 22.7463V22.8053C47.0948 24.4123 47.8245 25.2084 49.2542 25.2084C49.8052 25.2084 50.3264 25.0757 50.8178 24.8104L50.7881 23.5867C50.5498 23.6899 50.2817 23.7488 49.9839 23.7488C49.2988 23.7488 48.9563 23.3213 48.9563 22.4662V16.8195C48.9563 14.1657 47.5266 12.8388 44.6673 12.8388C43.878 12.8388 43.1334 12.9272 42.4335 13.1042C41.7187 13.2958 41.0485 13.5907 40.423 13.9888ZM47.0501 20.5053C46.9756 21.4784 46.5735 22.2598 45.8438 22.82C45.1141 23.395 44.3397 23.6751 43.5057 23.6751C42.9845 23.6751 42.4782 23.5277 42.0016 23.2476C41.5102 22.9674 41.2719 22.4367 41.2719 21.67C41.2719 20.7412 41.6442 20.1515 42.359 19.8713C43.0888 19.5912 43.8929 19.4585 44.8014 19.4585C45.2034 19.4585 45.5906 19.4733 45.9629 19.5175C46.3353 19.547 46.7076 19.5765 47.0352 19.5912V20.5053H47.0501Z" fill="#AEA6E1"/>
<path d="M57.623 30.6487V0.483887H69.9389V30.634H57.623V30.6487ZM68.6433 21.5226C68.6433 20.579 68.3901 19.8861 67.8838 19.429C67.3774 18.972 66.7669 18.6624 66.0222 18.4855C65.2776 18.3086 64.5479 18.1611 63.8182 18.0432C63.0885 17.9252 62.463 17.7336 61.9567 17.4829C61.4504 17.2323 61.1972 16.79 61.1972 16.156C61.1972 15.5516 61.4354 15.1093 61.9269 14.8144C62.4183 14.5195 63.0289 14.3868 63.7884 14.3868C64.6671 14.3868 65.4862 14.5785 66.2457 14.9766L66.5435 16.8932L68.1072 16.7015L67.8093 13.9298C67.303 13.6202 66.6924 13.3695 65.9627 13.1631C65.233 12.9567 64.4586 12.8388 63.6246 12.8388C62.5226 12.8388 61.5099 13.1042 60.5717 13.6202C59.6335 14.1362 59.1719 15.0208 59.1719 16.2887C59.1719 17.2176 59.425 17.8957 59.9313 18.3233C60.4377 18.7656 61.0632 19.0605 61.8227 19.2374C62.5822 19.4143 63.3268 19.5617 64.0714 19.6944C64.816 19.8124 65.4415 20.0188 65.9478 20.2842C66.4541 20.5495 66.7073 21.0066 66.7073 21.67C66.7073 22.3482 66.3796 22.8495 65.7244 23.1739C65.0691 23.4982 64.3245 23.6604 63.4757 23.6604C62.5226 23.6604 61.629 23.4687 60.81 23.0707L60.8845 21.4931L59.3803 21.3309L59.008 24.029C59.5292 24.3681 60.2143 24.6482 61.0482 24.8693C61.8822 25.0905 62.7162 25.2084 63.565 25.2084C65.0096 25.2084 66.2159 24.8841 67.1839 24.2206C68.1519 23.5867 68.6433 22.6726 68.6433 21.5226Z" fill="#AEA6E1"/>
<path d="M76.0293 30.6487V0.483887H88.3451V30.634H76.0293V30.6487ZM87.0495 21.5226C87.0495 20.579 86.7963 19.8861 86.29 19.429C85.7836 18.972 85.1731 18.6624 84.4285 18.4855C83.6838 18.3086 82.9541 18.1611 82.2244 18.0432C81.4947 17.9252 80.8692 17.7336 80.3629 17.4829C79.8566 17.2323 79.6034 16.79 79.6034 16.156C79.6034 15.5516 79.8416 15.1093 80.3331 14.8144C80.8245 14.5195 81.4351 14.3868 82.1946 14.3868C83.0733 14.3868 83.8924 14.5785 84.6519 14.9766L84.9497 16.8932L86.5134 16.7015L86.2155 13.9298C85.7092 13.6202 85.0986 13.3695 84.3689 13.1631C83.6392 12.9567 82.8648 12.8388 82.0308 12.8388C80.9288 12.8388 79.9161 13.1042 78.9779 13.6202C78.0397 14.1362 77.5781 15.0208 77.5781 16.2887C77.5781 17.2176 77.8312 17.8957 78.3376 18.3233C78.8439 18.7656 79.4694 19.0605 80.2289 19.2374C80.9884 19.4143 81.733 19.5617 82.4776 19.6944C83.2222 19.8124 83.8477 20.0188 84.354 20.2842C84.8603 20.5495 85.1135 21.0066 85.1135 21.67C85.1135 22.3482 84.7859 22.8495 84.1307 23.1739C83.4754 23.4982 82.7308 23.6604 81.8819 23.6604C80.9288 23.6604 80.0352 23.4687 79.2162 23.0707L79.2907 21.4931L77.7866 21.3309L77.4143 24.029C77.9355 24.3681 78.6205 24.6482 79.4545 24.8693C80.2885 25.0905 81.1224 25.2084 81.9713 25.2084C83.4158 25.2084 84.6221 24.8841 85.5901 24.2206C86.5581 23.5867 87.0495 22.6726 87.0495 21.5226Z" fill="#AEA6E1"/>
<path d="M94.4365 30.6487V0.483887H102.553V30.634H94.4365V30.6487ZM95.6279 24.9578H101.719V23.4392H99.619V13.0894H95.5833V14.608H97.7426V23.4392H95.6428V24.9578H95.6279ZM97.5341 7.59017V10.0228H99.5893V7.59017H97.5341Z" fill="#AEA6E1"/>
<path d="M108.644 30.6487V0.483887H121.615V30.634H108.644V30.6487ZM120.453 20.9624L118.83 20.6085C118.472 22.6136 117.385 23.6161 115.598 23.6161C114.407 23.6161 113.498 23.2181 112.873 22.4219C112.248 21.6258 111.935 20.5053 111.935 19.09C111.935 17.8073 112.218 16.7163 112.769 15.8022C113.32 14.8881 114.243 14.4458 115.524 14.4458C116.507 14.4458 117.37 14.667 118.085 15.1093L118.547 17.1143L120.111 16.9227L119.649 14.0625C119.038 13.6054 118.398 13.2811 117.728 13.1042C117.058 12.9272 116.328 12.8388 115.539 12.8388C113.677 12.8388 112.262 13.4875 111.339 14.7849C110.401 16.0823 109.939 17.5566 109.939 19.1932C109.939 21.095 110.431 22.5841 111.428 23.6309C112.411 24.6924 113.737 25.2232 115.39 25.2232C117.043 25.2232 118.264 24.7661 119.038 23.8668C119.813 22.9527 120.289 21.9944 120.453 20.9624Z" fill="#AEA6E1"/>
<path d="M7.8827 47.1175C7.54018 47.7368 7.03383 48.2233 6.37857 48.5624C5.70842 48.9015 4.91912 49.0784 3.9958 49.0784H1.33008V40.7632H3.9958C4.91912 40.7632 5.72331 40.9254 6.37857 41.2645C7.03383 41.6036 7.54018 42.0753 7.8827 42.7093C8.22522 43.3433 8.38903 44.0657 8.38903 44.9208C8.38903 45.7612 8.22522 46.4983 7.8827 47.1175ZM6.40834 47.2797C6.98914 46.7195 7.27211 45.9381 7.27211 44.9208C7.27211 43.9035 6.98914 43.1221 6.40834 42.5619C5.82754 42.0016 4.99357 41.7215 3.89155 41.7215H2.38746V48.1201H3.89155C4.99357 48.1201 5.82754 47.84 6.40834 47.2797Z" fill="#AEA6E1"/>
<path d="M13.9143 41.633V44.4785H17.1013V45.3041H13.9143V48.2086H17.4587V49.0784H12.8271V40.7632H17.4587V41.633H13.9143Z" fill="#AEA6E1"/>
<path d="M26.87 48.0165C26.6764 48.3556 26.3934 48.6357 26.0062 48.8421C25.619 49.0485 25.1425 49.1665 24.5617 49.1665C24.0107 49.1665 23.5043 49.0633 23.0724 48.8716C22.6406 48.6652 22.2981 48.3998 22.03 48.046C21.7768 47.6921 21.6279 47.2941 21.5832 46.8518H22.7448C22.7746 47.0877 22.8491 47.3236 22.9831 47.5447C23.1171 47.7659 23.3256 47.9575 23.5788 48.1049C23.8319 48.2524 24.1447 48.3261 24.517 48.3261C24.9935 48.3261 25.3659 48.2082 25.6191 47.9428C25.8722 47.6774 26.0062 47.3678 26.0062 46.9697C26.0062 46.6306 25.9169 46.3505 25.7382 46.1441C25.5595 45.9377 25.3361 45.7608 25.0829 45.6428C24.8297 45.5249 24.4574 45.3922 24.0107 45.2447C23.4745 45.0678 23.0576 44.9056 22.73 44.7582C22.4023 44.6108 22.1342 44.3749 21.9109 44.0653C21.6875 43.7557 21.5684 43.3576 21.5684 42.8563C21.5684 42.4288 21.6726 42.0454 21.8811 41.7063C22.0896 41.382 22.3874 41.1166 22.7895 40.9397C23.1767 40.7628 23.6533 40.6743 24.1745 40.6743C24.9936 40.6743 25.6637 40.866 26.1402 41.2641C26.6317 41.6621 26.8998 42.1634 26.9891 42.7826H25.8275C25.7679 42.4583 25.5892 42.1634 25.3212 41.9128C25.0382 41.6621 24.6659 41.5294 24.1894 41.5294C23.7575 41.5294 23.4001 41.6474 23.1469 41.8685C22.8789 42.0897 22.7597 42.414 22.7597 42.8121C22.7597 43.1365 22.8491 43.4018 23.0129 43.5935C23.1916 43.7999 23.4001 43.9473 23.6533 44.0653C23.9064 44.1832 24.2638 44.3012 24.6957 44.4486C25.2318 44.6255 25.6637 44.7877 26.0062 44.9499C26.3338 45.1121 26.6168 45.3479 26.8402 45.6576C27.0636 45.9672 27.1827 46.3947 27.1827 46.9255C27.1529 47.3088 27.0636 47.6774 26.87 48.0165Z" fill="#AEA6E1"/>
<path d="M32.678 40.7632V49.0784H31.5908V40.7632H32.678Z" fill="#AEA6E1"/>
<path d="M43.6686 41.3967C44.3387 41.8833 44.7855 42.532 45.0089 43.3576H43.8622C43.6686 42.8563 43.3261 42.4435 42.8644 42.1486C42.4027 41.839 41.8517 41.6916 41.2114 41.6916C40.6455 41.6916 40.1242 41.8243 39.6774 42.0897C39.2307 42.355 38.8733 42.7236 38.6052 43.2102C38.3521 43.6967 38.218 44.2717 38.218 44.9351C38.218 45.6133 38.3521 46.203 38.6052 46.6896C38.8584 47.1761 39.2307 47.5594 39.6923 47.8248C40.154 48.0902 40.6901 48.2229 41.3007 48.2229C41.822 48.2229 42.2836 48.1049 42.7155 47.8985C43.1473 47.6774 43.4898 47.353 43.7728 46.9402C44.0557 46.5274 44.2047 46.0261 44.2643 45.4659H40.9582V44.6697H45.1727V45.6575C45.0982 46.321 44.8897 46.9107 44.5472 47.4562C44.2047 48.0017 43.7431 48.4145 43.1623 48.7241C42.5815 49.0338 41.9262 49.1959 41.1816 49.1959C40.3774 49.1959 39.6625 49.019 39.0371 48.6652C38.4116 48.3113 37.935 47.8101 37.5925 47.1614C37.25 46.5274 37.0713 45.7902 37.0713 44.9646C37.0713 44.139 37.25 43.4018 37.5925 42.7679C37.935 42.1339 38.4265 41.6179 39.0371 41.264C39.6477 40.9102 40.3625 40.7185 41.1667 40.7185C42.1793 40.689 42.9984 40.9249 43.6686 41.3967Z" fill="#AEA6E1"/>
<path d="M56.1627 49.0784H55.0756L50.7121 42.5029V49.0784H49.625V40.7632H50.7121L55.0756 47.3387V40.7632H56.1627V49.0784Z" fill="#AEA6E1"/>
<path d="M71.83 48.0165C71.6364 48.3556 71.3534 48.6357 70.9662 48.8421C70.579 49.0485 70.1025 49.1665 69.5217 49.1665C68.9707 49.1665 68.4643 49.0633 68.0325 48.8716C67.6006 48.6652 67.258 48.3998 66.99 48.046C66.7368 47.6921 66.5879 47.2941 66.5432 46.8518H67.7048C67.7346 47.0877 67.8091 47.3236 67.9431 47.5447C68.0771 47.7659 68.2856 47.9575 68.5387 48.1049C68.7919 48.2524 69.1046 48.3261 69.477 48.3261C69.9535 48.3261 70.3258 48.2082 70.579 47.9428C70.8321 47.6774 70.9662 47.3678 70.9662 46.9697C70.9662 46.6306 70.8768 46.3505 70.6981 46.1441C70.5194 45.9377 70.296 45.7608 70.0429 45.6428C69.7897 45.5249 69.4174 45.3922 68.9707 45.2447C68.4345 45.0678 68.0175 44.9056 67.6899 44.7582C67.3622 44.6108 67.0942 44.3749 66.8708 44.0653C66.6474 43.7557 66.5283 43.3576 66.5283 42.8563C66.5283 42.4288 66.6325 42.0454 66.841 41.7063C67.0495 41.382 67.3474 41.1166 67.7495 40.9397C68.1367 40.7628 68.6132 40.6743 69.1345 40.6743C69.9535 40.6743 70.6237 40.866 71.1002 41.2641C71.5917 41.6621 71.8598 42.1634 71.9491 42.7826H70.7875C70.7279 42.4583 70.5492 42.1634 70.2811 41.9128C69.9982 41.6621 69.6259 41.5294 69.1494 41.5294C68.7175 41.5294 68.3601 41.6474 68.1069 41.8685C67.8388 42.0897 67.7197 42.414 67.7197 42.8121C67.7197 43.1365 67.809 43.4018 67.9728 43.5935C68.1515 43.7999 68.36 43.9473 68.6132 44.0653C68.8663 44.1832 69.2238 44.3012 69.6557 44.4486C70.1918 44.6255 70.6237 44.7877 70.9662 44.9499C71.2938 45.1121 71.5768 45.3479 71.8001 45.6576C72.0235 45.9672 72.1426 46.3947 72.1426 46.9255C72.1128 47.3088 72.0236 47.6774 71.83 48.0165Z" fill="#AEA6E1"/>
<path d="M81.7031 40.7632V41.633H79.3352V49.0784H78.2331V41.633H75.8652V40.7632H81.7031Z" fill="#AEA6E1"/>
<path d="M86.7673 40.7632V45.7464C86.7673 46.5573 86.946 47.1618 87.3183 47.5599C87.6906 47.9432 88.182 48.1496 88.8373 48.1496C89.4777 48.1496 89.9691 47.9579 90.3265 47.5599C90.6839 47.1618 90.8626 46.572 90.8626 45.7612V40.7779H91.9498V45.7612C91.9498 46.8964 91.6668 47.7515 91.1009 48.3118C90.535 48.8868 89.7755 49.1669 88.8224 49.1669C87.8842 49.1669 87.1247 48.8868 86.5588 48.3118C85.9929 47.7368 85.71 46.8964 85.71 45.7612V40.7779H86.7673V40.7632Z" fill="#AEA6E1"/>
<path d="M103.163 47.1175C102.82 47.7368 102.314 48.2233 101.659 48.5624C100.989 48.9015 100.199 49.0784 99.276 49.0784H96.6104V40.7632H99.276C100.199 40.7632 101.003 40.9254 101.659 41.2645C102.314 41.6036 102.82 42.0753 103.163 42.7093C103.505 43.3433 103.669 44.0657 103.669 44.9208C103.669 45.7612 103.505 46.4983 103.163 47.1175ZM101.703 47.2797C102.284 46.7195 102.567 45.9381 102.567 44.9208C102.567 43.9035 102.284 43.1221 101.703 42.5619C101.123 42.0016 100.289 41.7215 99.1867 41.7215H97.6825V48.1201H99.1867C100.274 48.1201 101.123 47.84 101.703 47.2797Z" fill="#AEA6E1"/>
<path d="M109.209 40.7632V49.0784H108.122V40.7632H109.209Z" fill="#AEA6E1"/>
<path d="M119.872 41.2052C120.497 41.5738 120.989 42.075 121.346 42.7237C121.703 43.3724 121.882 44.1096 121.882 44.9205C121.882 45.7314 121.703 46.4685 121.346 47.1172C120.989 47.7659 120.497 48.2672 119.872 48.6358C119.246 49.0044 118.546 49.1813 117.772 49.1813C116.997 49.1813 116.283 49.0044 115.657 48.6358C115.032 48.2672 114.525 47.7659 114.168 47.1172C113.811 46.4685 113.632 45.7314 113.632 44.9205C113.632 44.1096 113.811 43.3724 114.168 42.7237C114.525 42.075 115.017 41.5738 115.657 41.2052C116.298 40.8366 116.997 40.6597 117.772 40.6597C118.546 40.6597 119.246 40.8366 119.872 41.2052ZM116.208 42.0603C115.747 42.3257 115.389 42.6942 115.136 43.1955C114.883 43.682 114.749 44.257 114.749 44.9205C114.749 45.5692 114.883 46.1442 115.136 46.6455C115.389 47.1467 115.747 47.5153 116.208 47.7807C116.67 48.0461 117.176 48.1788 117.757 48.1788C118.323 48.1788 118.844 48.0461 119.306 47.7807C119.767 47.5153 120.125 47.132 120.378 46.6455C120.631 46.1589 120.765 45.5839 120.765 44.9352C120.765 44.2718 120.631 43.6968 120.378 43.2103C120.125 42.7237 119.767 42.3404 119.306 42.075C118.844 41.8096 118.338 41.677 117.757 41.677C117.191 41.6622 116.67 41.7949 116.208 42.0603Z" fill="#AEA6E1"/>
</svg>
