<svg width="108" height="106" viewBox="0 0 108 106" fill="none" xmlns="http://www.w3.org/2000/svg">
<g style="mix-blend-mode:multiply">
<path d="M54.3372 104.943C83.4035 104.943 106.966 81.6158 106.966 52.8402C106.966 24.0646 83.4035 0.737305 54.3372 0.737305C25.2709 0.737305 1.70801 24.0646 1.70801 52.8402C1.70801 81.6158 25.2709 104.943 54.3372 104.943Z" fill="white"/>
<path d="M54.3377 105.68C24.9106 105.68 0.963867 81.9728 0.963867 52.84C0.963867 23.7073 24.9106 0 54.3377 0C83.7647 0 107.711 23.7073 107.711 52.84C107.711 81.9728 83.7647 105.68 54.3377 105.68ZM54.3377 1.47433C25.7297 1.47433 2.45309 24.5181 2.45309 52.84C2.45309 81.162 25.7297 104.206 54.3377 104.206C82.9456 104.206 106.222 81.162 106.222 52.84C106.222 24.5181 82.9456 1.47433 54.3377 1.47433Z" fill="#AEA6E1"/>
<path d="M61.8436 6.02976C62.201 6.05924 62.5137 6.07398 62.7669 6.07398L62.7371 6.30988C62.3201 6.36885 61.9627 6.67846 61.6798 7.26819L58.1354 14.286L58.0312 14.2713L57.9418 14.2565L55.6931 6.42782C55.5442 5.91181 55.291 5.63169 54.9336 5.58746L54.9634 5.35156C55.291 5.41054 55.7229 5.45477 56.259 5.51374C56.9589 5.57271 57.4802 5.61694 57.8227 5.61694L57.7929 5.85284C57.4802 5.83809 57.2568 5.85284 57.1227 5.89707C56.9887 5.9413 56.9143 6.05924 56.8994 6.20667C56.8845 6.33936 56.9143 6.53103 56.9887 6.78166L58.6418 12.7675L61.099 7.87267C61.3075 7.4746 61.4117 7.15025 61.4415 6.91435C61.4713 6.66372 61.3968 6.47205 61.233 6.33936C61.0692 6.20667 60.8011 6.13296 60.4437 6.08873L60.4735 5.85284C60.9054 5.92655 61.367 5.98553 61.8436 6.02976Z" fill="#AEA6E1"/>
<path d="M71.8512 9.14065C71.7023 9.14065 71.5831 9.19962 71.4938 9.31757C71.4044 9.43551 71.3002 9.62718 71.1959 9.9073L69.0663 15.5098C68.9621 15.7899 68.9025 16.011 68.9025 16.1585C68.9025 16.3059 68.9472 16.4238 69.0515 16.5123C69.1557 16.6008 69.3493 16.704 69.6174 16.8219L69.528 17.0431C69.1855 16.8956 68.7089 16.704 68.0984 16.4681C67.4431 16.2174 66.9517 16.0553 66.624 15.9521L66.7134 15.7309C66.9963 15.8194 67.2048 15.8636 67.3389 15.8636C67.4729 15.8636 67.6069 15.8046 67.6963 15.6867C67.7856 15.5687 67.8899 15.3771 67.9941 15.0969L70.1237 9.49449C70.2279 9.21436 70.2875 8.99321 70.2875 8.84578C70.2875 8.69835 70.2428 8.5804 70.1386 8.49194C70.0343 8.40348 69.8407 8.30028 69.5727 8.18233L69.662 7.96118C69.9748 8.09387 70.4513 8.28553 71.1066 8.53617C71.7172 8.77206 72.2086 8.93424 72.566 9.03744L72.4767 9.25859C72.2086 9.17013 72.0001 9.1259 71.8512 9.14065Z" fill="#AEA6E1"/>
<path d="M85.1047 16.9398C84.9558 16.9104 84.8069 16.9546 84.6729 17.043C84.5388 17.1315 84.375 17.3084 84.1963 17.5591L79.8776 23.3532L79.6542 23.191L80.235 13.8732L76.4077 19.0039C76.229 19.2545 76.1098 19.4609 76.0503 19.6231C75.9907 19.7853 76.0205 19.9327 76.0949 20.0802C76.1694 20.2276 76.3481 20.3898 76.6013 20.5962L76.4523 20.7878C76.229 20.5962 75.9013 20.3455 75.4695 20.0212C75.0823 19.7411 74.7695 19.5199 74.5312 19.3872L74.6802 19.1956C74.9184 19.3577 75.112 19.4462 75.261 19.4609C75.4099 19.4904 75.5588 19.4462 75.6928 19.3577C75.8269 19.2545 75.9907 19.0924 76.1694 18.8417L79.684 14.1239C79.8627 13.8732 79.9818 13.6816 80.0265 13.5489C80.0712 13.4162 80.0563 13.2835 79.9818 13.1656C79.9073 13.0476 79.7584 12.9002 79.5201 12.7085L79.6691 12.5168C79.8627 12.6938 80.1605 12.9297 80.5626 13.2098C80.8605 13.4309 81.1136 13.6079 81.3519 13.7405L80.8753 21.5545L83.9729 17.3969C84.1516 17.1462 84.2857 16.9398 84.3303 16.7777C84.375 16.6155 84.3601 16.4681 84.2857 16.3206C84.2112 16.1732 84.0325 15.9963 83.7793 15.8046L83.9282 15.6129C84.1516 15.8046 84.4793 16.0552 84.9111 16.3796C85.2983 16.6597 85.6111 16.8809 85.8493 17.0136L85.7004 17.2052C85.4473 17.0578 85.2537 16.9546 85.1047 16.9398Z" fill="#AEA6E1"/>
<path d="M90.0941 23.5893C90.4813 23.3091 90.8834 22.9995 91.3153 22.6162C91.6876 23.1765 92.3429 24.1053 93.2811 25.4174C94.2193 26.7149 94.8894 27.6289 95.2915 28.1597C94.7852 28.4546 94.3533 28.7199 93.9661 28.9853C93.6385 29.2212 93.3704 29.4276 93.1768 29.5898L93.013 29.3686C93.4896 28.9558 93.8172 28.6167 94.0108 28.3661C94.2044 28.1155 94.2788 27.8501 94.264 27.57C94.2491 27.2898 94.0704 26.9507 93.7874 26.5379L93.4002 26.0072L87.756 29.9879C87.488 30.1795 87.2944 30.3565 87.205 30.4891C87.1157 30.6218 87.0859 30.784 87.1455 30.9609C87.1901 31.1231 87.3242 31.359 87.5178 31.6539L87.3242 31.8013C87.1008 31.4475 86.7583 30.9462 86.3115 30.3417C85.8349 29.6783 85.4775 29.2065 85.2393 28.9116L85.4329 28.7642C85.6562 29.0443 85.8349 29.236 85.9839 29.3392C86.1328 29.4424 86.2817 29.4719 86.4455 29.4276C86.6093 29.3834 86.8327 29.2654 87.1008 29.0738L92.7449 25.0931L92.3577 24.5623C92.0599 24.1495 91.7918 23.8989 91.5387 23.7809C91.2855 23.663 91.0026 23.6482 90.7047 23.7514C90.4069 23.8547 89.975 24.0463 89.424 24.3559L89.2602 24.1348C89.4835 24.0168 89.7516 23.8399 90.0941 23.5893Z" fill="#AEA6E1"/>
<path d="M92.9536 44.0532L92.7153 44.1269C92.6259 43.8026 92.5068 43.3898 92.3281 42.8885C92.1047 42.2398 91.926 41.7532 91.792 41.4289L92.0302 41.3552C92.1345 41.6353 92.2536 41.8417 92.343 41.9449C92.4472 42.0481 92.5812 42.0776 92.7302 42.0186C92.8642 41.9744 93.028 41.8712 93.2216 41.709L94.8747 40.3674L93.9364 37.6104L92.5515 37.5514C92.1047 37.5219 91.7622 37.5514 91.5239 37.6399C91.2856 37.7283 91.1367 37.861 91.0771 38.0527C91.0324 38.2443 91.0622 38.5245 91.1665 38.8636L90.9282 38.9373C90.8091 38.495 90.6601 38.0527 90.5112 37.6104C90.3921 37.2713 90.2878 36.9912 90.1836 36.77L90.4219 36.6963C90.6304 37.0501 91.0771 37.2418 91.7324 37.2565L99.6551 37.6104L99.7146 37.7873L93.4003 42.9917C93.0131 43.3603 92.8642 43.6994 92.9536 44.0532ZM98.1212 37.7873L94.2194 37.6251L95.098 40.2199L98.1212 37.7873Z" fill="#AEA6E1"/>
<path d="M94.0405 55.3311C94.1894 55.2721 94.2639 55.1984 94.2639 55.0952C94.2639 55.0363 94.249 54.992 94.2192 54.9478C94.1894 54.9036 94.1298 54.8151 94.0405 54.6972C93.8171 54.417 93.6533 54.1222 93.5341 53.8273C93.415 53.5324 93.3554 53.1933 93.3554 52.8248C93.3405 51.9991 93.5043 51.2915 93.832 50.687C94.1745 50.0825 94.651 49.6255 95.3063 49.3011C95.9467 48.9768 96.7211 48.8146 97.6295 48.7998C98.5677 48.7851 99.3868 48.9325 100.087 49.2569C100.787 49.5812 101.338 50.0235 101.725 50.6133C102.112 51.203 102.321 51.8664 102.321 52.6036C102.321 52.928 102.291 53.2228 102.231 53.4735C102.172 53.7241 102.082 53.9453 101.978 54.1369C101.874 54.3286 101.74 54.5497 101.561 54.7856C101.487 54.8888 101.442 54.9773 101.442 55.0363C101.442 55.1837 101.695 55.2869 102.187 55.3311V55.6112C101.665 55.5818 100.727 55.5818 99.3868 55.6112V55.3311C99.8186 55.2574 100.176 55.1689 100.459 55.0805C100.742 54.992 100.98 54.8593 101.189 54.6972C101.472 54.4613 101.71 54.1517 101.874 53.7683C102.038 53.385 102.112 53.0017 102.112 52.5889C102.097 52.0581 101.918 51.6011 101.561 51.203C101.204 50.8049 100.697 50.5101 100.057 50.2889C99.4017 50.0825 98.6571 49.9793 97.7933 49.994C96.8104 50.0088 96.0211 50.1267 95.3957 50.3479C94.7702 50.569 94.3234 50.8934 94.0256 51.3209C93.7277 51.7485 93.5937 52.294 93.6086 52.9574C93.6235 53.444 93.7575 53.8568 94.0107 54.2106C94.1149 54.3581 94.2043 54.4465 94.3085 54.4908C94.3979 54.535 94.5319 54.5497 94.6957 54.5497L95.8722 54.535C96.2147 54.535 96.453 54.4908 96.6168 54.4318C96.7658 54.3728 96.8849 54.2549 96.9296 54.0779C96.9891 53.9158 97.0189 53.6504 97.0189 53.2965H97.2572C97.2423 53.6946 97.2274 54.2549 97.2423 55.0068C97.2572 55.567 97.2721 55.9946 97.3019 56.26H97.0636C97.0487 56.0683 97.004 55.9356 96.9593 55.8619C96.9147 55.7882 96.8104 55.7292 96.6764 55.6997C96.5424 55.6702 96.319 55.6555 96.0062 55.6702L93.5937 55.7145V55.4786C93.7277 55.4196 93.8915 55.3901 94.0405 55.3311Z" fill="#AEA6E1"/>
<path d="M92.269 67.8781C91.8371 67.7454 91.3308 67.6127 90.75 67.4947C90.9436 66.9787 91.2266 66.1089 91.6286 64.8704C92.1052 63.3961 92.4477 62.2756 92.6562 61.5237L92.8945 61.5974C92.82 61.8775 92.7902 62.0839 92.7902 62.2314C92.8051 62.3788 92.8647 62.482 92.9838 62.5705C93.103 62.6589 93.3115 62.7474 93.5944 62.8358L99.3577 64.6345C99.6556 64.723 99.8641 64.7672 100.013 64.7672C100.162 64.7672 100.281 64.7082 100.37 64.5903C100.46 64.4723 100.549 64.2807 100.653 64.0153L100.892 64.089C100.624 64.8409 100.266 65.9467 99.7896 67.421C99.4322 68.5415 99.179 69.3524 99.0599 69.8389C98.5684 69.6325 98.1217 69.4556 97.7047 69.3376C97.4068 69.2492 97.1537 69.1755 96.975 69.146L97.0643 68.8806C97.5855 68.9838 97.9876 69.028 98.2557 69.028C98.5237 69.028 98.7471 68.9396 98.9258 68.7627C99.1045 68.6005 99.2535 68.3056 99.3875 67.9075L99.6853 66.9492C99.7747 66.6691 99.8194 66.4627 99.8045 66.33C99.7896 66.1973 99.7449 66.0794 99.6258 65.9909C99.5066 65.9024 99.313 65.814 99.0152 65.7255L96.275 64.8704L96.0367 65.6371C95.9176 66.0204 95.9474 66.3153 96.141 66.5217C96.3346 66.7281 96.5431 66.8755 96.7813 66.9787C97.0196 67.0819 97.1686 67.1556 97.2281 67.1851L97.1388 67.4505C96.7665 67.3031 96.409 67.1704 96.0516 67.0672L95.5006 66.905C95.1134 66.787 94.5475 66.6249 93.8327 66.4627L93.922 66.1973C93.9816 66.2121 94.1752 66.2415 94.5028 66.3153C94.8305 66.3742 95.1134 66.3447 95.3368 66.2268C95.5602 66.1089 95.7091 65.8877 95.8134 65.5781L96.0516 64.8114L93.2519 63.9416C92.9541 63.8531 92.7456 63.8089 92.5966 63.8089C92.4477 63.8089 92.3286 63.8679 92.2541 63.9858C92.1648 64.1038 92.0754 64.2954 91.9861 64.5755L91.718 65.4159C91.5691 65.9024 91.5095 66.2858 91.5691 66.5659C91.6137 66.8608 91.7627 67.0967 92.0158 67.3031C92.269 67.4947 92.6562 67.7159 93.1774 67.9518L93.0881 68.2171C92.9094 68.0845 92.6264 67.996 92.269 67.8781Z" fill="#AEA6E1"/>
<path d="M88.0235 85.9677C88.0831 85.8351 88.0682 85.7024 88.0086 85.5697C87.9491 85.437 87.8001 85.2748 87.5768 85.0537L83.1984 80.9108C82.9751 80.7044 82.7964 80.5717 82.6623 80.5127C82.5283 80.4537 82.3943 80.4537 82.2602 80.5127C82.1262 80.5717 81.9624 80.7044 81.7539 80.9108L81.5752 80.7486C81.8581 80.498 82.2156 80.1294 82.6772 79.6723C83.1538 79.1711 83.5112 78.7877 83.7346 78.5371L83.9133 78.6993C83.7197 78.9204 83.6005 79.0974 83.541 79.2153C83.4814 79.348 83.4963 79.4807 83.5559 79.6134C83.6154 79.7461 83.7644 79.9082 83.9877 80.1294L88.3661 84.2723C88.5894 84.4787 88.7681 84.6114 88.9022 84.6703C89.0362 84.7293 89.1702 84.7293 89.3043 84.6703C89.4383 84.6114 89.6021 84.4787 89.8106 84.2723L89.9893 84.4344C89.7361 84.6556 89.3638 85.0242 88.8873 85.5254C88.4256 85.9972 88.0831 86.3806 87.8448 86.6607L87.6661 86.4985C87.8448 86.2773 87.964 86.1004 88.0235 85.9677Z" fill="#AEA6E1"/>
<path d="M75.6188 94.9617C75.7082 94.829 75.7231 94.6963 75.6933 94.5341C75.6635 94.372 75.5592 94.1655 75.3954 93.8854L71.7021 87.6785L71.9404 87.531L80.3694 91.7034L77.108 86.2189C76.9442 85.9535 76.8102 85.7618 76.6762 85.6586C76.5421 85.5554 76.3932 85.5112 76.2294 85.526C76.0656 85.5407 75.8422 85.6292 75.5592 85.7766L75.4252 85.5702C75.6933 85.4522 76.0507 85.2458 76.5123 84.9805C76.9293 84.7298 77.2421 84.5382 77.4654 84.376L77.5846 84.5824C77.3463 84.7298 77.1825 84.8772 77.108 85.0099C77.0187 85.1426 77.0038 85.2753 77.0336 85.4375C77.0634 85.5997 77.1676 85.8061 77.3314 86.0862L80.3396 91.1432C80.4886 91.4085 80.6226 91.5855 80.7417 91.6739C80.8609 91.7624 80.98 91.8066 81.1289 91.7771C81.263 91.7476 81.4715 91.6739 81.7246 91.5412L81.8438 91.7476C81.6055 91.8656 81.2779 92.0425 80.846 92.2931C80.5332 92.4701 80.2652 92.647 80.0418 92.7944L72.968 89.3002L75.6188 93.7527C75.7826 94.0181 75.9166 94.2098 76.0507 94.313C76.1698 94.4162 76.3187 94.4604 76.4975 94.4457C76.6762 94.4309 76.8995 94.3425 77.1825 94.195L77.3016 94.4014C77.0336 94.5194 76.6762 94.7258 76.2145 94.9912C75.7975 95.2418 75.4848 95.4335 75.2614 95.5956L75.1423 95.3892C75.3656 95.2271 75.5295 95.0796 75.6188 94.9617Z" fill="#AEA6E1"/>
<path d="M67.4286 96.8924C67.5328 97.3495 67.6668 97.8507 67.8455 98.3815C67.1754 98.4995 66.0585 98.7353 64.4799 99.0597C62.9013 99.3988 61.7993 99.6494 61.144 99.8116C61.0696 99.2366 60.9951 98.7353 60.8909 98.2783C60.8015 97.8802 60.727 97.5559 60.6377 97.32L60.9058 97.261C61.0994 97.8655 61.2781 98.293 61.4419 98.5732C61.6057 98.8533 61.8142 99.0302 62.0822 99.1187C62.3503 99.2071 62.7375 99.1924 63.2289 99.0892L63.8693 98.9565L62.4099 92.2483C62.3354 91.9239 62.261 91.688 62.1567 91.5553C62.0525 91.4227 61.9333 91.3342 61.7546 91.3194C61.5759 91.29 61.3078 91.3195 60.9504 91.3784L60.9058 91.1425C61.3227 91.0836 61.9184 90.9656 62.663 90.8034C63.4523 90.6265 64.048 90.4938 64.4203 90.3906L64.465 90.6265C64.1076 90.715 63.8693 90.8034 63.7204 90.8919C63.5715 90.9804 63.4821 91.113 63.4523 91.2752C63.4225 91.4374 63.4374 91.688 63.5119 92.0124L64.9713 98.7206L65.6117 98.5879C66.1031 98.4847 66.4606 98.3373 66.6691 98.1456C66.8775 97.9539 66.9967 97.7033 67.0265 97.3937C67.0563 97.0841 67.0414 96.6123 66.9669 95.9931L67.235 95.9341C67.2796 96.17 67.3392 96.4944 67.4286 96.8924Z" fill="#AEA6E1"/>
<path d="M47.6663 92.7502C47.7109 92.2932 47.7258 91.7771 47.7258 91.2021C48.2768 91.2759 49.2002 91.3643 50.5107 91.4823C52.0595 91.615 53.2359 91.7182 54.0401 91.7624L54.0252 91.9983C53.7274 91.9835 53.5189 91.9983 53.3849 92.0425C53.2508 92.0867 53.1466 92.1605 53.087 92.2932C53.0275 92.4258 52.9828 92.647 52.953 92.9419L52.4169 98.9129C52.3871 99.2078 52.402 99.4289 52.4318 99.5764C52.4616 99.7238 52.5509 99.827 52.6849 99.886C52.819 99.9449 53.0275 100.004 53.3104 100.033L53.2955 100.269C52.5062 100.181 51.3297 100.063 49.7809 99.9302C48.5896 99.827 47.7407 99.768 47.2344 99.7385C47.3386 99.2225 47.4131 98.7507 47.4429 98.3232C47.4726 98.0136 47.4875 97.7629 47.4727 97.5713L47.7556 97.6007C47.7705 98.1315 47.8003 98.5148 47.8747 98.7802C47.9343 99.0456 48.0683 99.2373 48.2768 99.3699C48.4704 99.5026 48.7981 99.5911 49.215 99.6206L50.2277 99.709C50.5256 99.7385 50.734 99.7238 50.8681 99.6943C51.0021 99.6648 51.1064 99.5763 51.1659 99.4437C51.2255 99.311 51.2702 99.0898 51.3 98.795L51.5531 95.9642L50.7489 95.8905C50.3469 95.861 50.0639 95.9495 49.9001 96.1854C49.7512 96.4213 49.632 96.6572 49.5874 96.9078C49.5278 97.1585 49.498 97.3206 49.4831 97.3943L49.2002 97.3649C49.2597 96.9668 49.3044 96.5982 49.3491 96.2296L49.3938 95.6546C49.4235 95.2418 49.4533 94.6816 49.4831 93.9444L49.7661 93.9739C49.7661 94.0329 49.7809 94.2245 49.7809 94.5636C49.7958 94.9027 49.8703 95.1681 50.049 95.345C50.2128 95.5367 50.466 95.6399 50.7936 95.6694L51.5978 95.7431L51.851 92.8534C51.8808 92.5585 51.8659 92.3374 51.8361 92.1899C51.8063 92.0573 51.7169 91.9541 51.5829 91.8951C51.4489 91.8361 51.2404 91.7919 50.9574 91.7624L50.0639 91.6887C49.5576 91.6444 49.1704 91.6739 48.8874 91.7919C48.6194 91.8951 48.4109 92.1015 48.2619 92.3816C48.113 92.6617 47.9939 93.0893 47.8747 93.6495L47.5918 93.6201C47.5918 93.3989 47.6216 93.104 47.6663 92.7502Z" fill="#AEA6E1"/>
<path d="M35.9463 87.2805C36.1697 87.2363 36.4229 87.2805 36.6909 87.3984C37.0037 87.5311 37.2122 87.7228 37.3313 87.9734C37.4504 88.2388 37.4653 88.6074 37.3909 89.0939L37.1675 90.3029C37.093 90.7304 37.0483 91.0548 37.0335 91.3054C37.0186 91.5413 37.0781 91.7625 37.1824 91.9541C37.2866 92.1458 37.4802 92.2932 37.7632 92.4112L38.8354 92.8535L39.9226 90.2881C40.0417 90.008 40.1013 89.8016 40.1162 89.6542C40.131 89.5067 40.0715 89.3888 39.9672 89.2856C39.863 89.1824 39.6843 89.0792 39.4162 88.9612L39.5056 88.7401C39.8481 88.9023 40.3097 89.1087 40.9203 89.3593C41.5607 89.6247 42.0521 89.8163 42.3798 89.9196L42.2904 90.1407C42.0075 90.0375 41.799 89.9933 41.6649 89.9785C41.516 89.9785 41.3969 90.0228 41.3075 90.1407C41.2033 90.2439 41.099 90.4356 40.9799 90.7157L38.6418 96.2444C38.5227 96.5246 38.4631 96.731 38.4482 96.8784C38.4333 97.0258 38.4929 97.1438 38.5971 97.247C38.7014 97.3502 38.8801 97.4534 39.1482 97.5861L39.0588 97.8072C38.7461 97.6598 38.2993 97.4534 37.7036 97.2027C37.4058 97.0848 37.093 96.9521 36.7356 96.8047C36.3782 96.6573 36.1399 96.5688 36.0059 96.5098C35.4251 96.2592 34.9634 95.9791 34.6209 95.64C34.2784 95.3009 34.0848 94.947 33.9954 94.5637C33.9061 94.1804 33.9508 93.8118 34.1146 93.4432C34.2337 93.1483 34.4273 92.883 34.6954 92.6471C34.9634 92.4112 35.306 92.2343 35.7229 92.1458C36.1399 92.0573 36.6463 92.0721 37.1973 92.2048L37.0632 92.131C36.7505 91.9394 36.5122 91.7477 36.3633 91.5413C36.2144 91.3497 36.1101 91.1285 36.0804 90.8926C36.0357 90.6567 36.0506 90.3618 36.1101 90.008L36.3186 88.7548C36.3633 88.5042 36.3931 88.3125 36.3931 88.1651C36.3931 88.0177 36.3782 87.8997 36.3335 87.8113C36.2888 87.7228 36.2144 87.6491 36.1101 87.6196C35.991 87.5606 35.8719 87.5606 35.7676 87.5901C35.6634 87.6196 35.5144 87.6933 35.3208 87.7965L35.2017 87.6048C35.4698 87.4427 35.7229 87.3247 35.9463 87.2805ZM36.6909 92.5291C36.3335 92.5733 36.0506 92.706 35.8272 92.9272C35.6038 93.1483 35.4102 93.4432 35.2464 93.8265C34.9932 94.431 34.9337 94.9618 35.0975 95.3893C35.2613 95.8169 35.6634 96.1707 36.3335 96.4508C36.5718 96.554 36.7505 96.5983 36.8994 96.5835C37.0335 96.5835 37.1526 96.5246 37.2568 96.4066C37.3611 96.2887 37.4653 96.097 37.5696 95.8316L38.7312 93.0894L37.9717 92.7798C37.4802 92.5733 37.0483 92.4849 36.6909 92.5291Z" fill="#AEA6E1"/>
<path d="M24.3301 89.2853C24.4641 89.3296 24.5981 89.3001 24.7173 89.2264C24.8364 89.1526 25.0002 88.9905 25.1938 88.7546L28.9318 84.0367C29.1254 83.8008 29.2445 83.6092 29.2892 83.4765C29.3339 83.3438 29.319 83.2111 29.2445 83.0931C29.17 82.9752 29.0211 82.813 28.7977 82.6214L28.9467 82.4297C29.2296 82.6803 29.6168 83.0047 30.138 83.4027C30.689 83.8303 31.106 84.1399 31.389 84.3316L31.2401 84.5232C31.0018 84.3463 30.8082 84.2431 30.6742 84.2136C30.5401 84.1694 30.4061 84.1841 30.287 84.2726C30.1678 84.3463 30.004 84.5085 29.8104 84.7444L26.0725 89.4623C25.8789 89.6981 25.7597 89.8898 25.715 90.0225C25.6704 90.1552 25.6853 90.2879 25.7597 90.4058C25.8342 90.5238 25.9831 90.6859 26.2065 90.8776L26.0576 91.0693C25.8044 90.8481 25.4023 90.5238 24.8513 90.0815C24.3301 89.6834 23.9131 89.3738 23.6152 89.1674L23.7642 88.9757C24.0173 89.1379 24.196 89.2411 24.3301 89.2853Z" fill="#AEA6E1"/>
<path d="M14.7101 78.7881C14.6505 78.1246 14.7994 77.4612 15.142 76.8272C15.4994 76.1785 16.0355 75.6035 16.7801 75.058C17.5098 74.542 18.2395 74.2029 18.999 74.0702C19.7585 73.9375 20.4585 73.9818 21.1137 74.2324C21.769 74.483 22.32 74.9106 22.7519 75.5151C23.2135 76.1343 23.4667 76.783 23.5263 77.4464C23.5858 78.1099 23.4369 78.7733 23.0944 79.4073C22.737 80.056 22.2009 80.631 21.4563 81.1765C20.7265 81.6925 19.9968 82.0316 19.2373 82.1643C18.4927 82.297 17.7779 82.2528 17.1226 82.0021C16.4674 81.7515 15.9163 81.3239 15.4845 80.7342C15.0228 80.1002 14.7696 79.4515 14.7101 78.7881ZM16.9439 81.4124C17.4651 81.5156 18.0608 81.4714 18.7161 81.265C19.3713 81.0586 20.0266 80.7195 20.7116 80.2182C21.3967 79.7317 21.9328 79.2009 22.3051 78.6406C22.6923 78.0804 22.9008 77.5202 22.9306 76.9894C22.9753 76.4586 22.8412 75.9869 22.5583 75.5888C22.2455 75.176 21.8435 74.9106 21.3073 74.8074C20.7861 74.7042 20.1904 74.7484 19.5352 74.9548C18.8799 75.1612 18.2246 75.5003 17.5396 75.9869C16.8546 76.4734 16.3184 77.0041 15.9461 77.5791C15.5589 78.1394 15.3504 78.6849 15.3058 79.2304C15.2611 79.7611 15.3951 80.2329 15.6781 80.631C15.9908 81.0438 16.4078 81.3092 16.9439 81.4124Z" fill="#AEA6E1"/>
<path d="M15.856 61.0374C16.0347 61.1701 16.1687 61.3913 16.258 61.6861C16.3623 61.9957 16.3474 62.2906 16.2283 62.5412C16.1091 62.8066 15.8262 63.0573 15.3943 63.3079L14.3072 63.9124C13.9349 64.1335 13.6519 64.3105 13.4583 64.4579C13.2647 64.6053 13.1307 64.7822 13.0562 64.9886C12.9818 65.1951 12.9818 65.4309 13.0711 65.7258L13.4136 66.8316L16.0942 66.0059C16.3921 65.9175 16.5857 65.829 16.7048 65.7406C16.8239 65.6521 16.8835 65.5341 16.8984 65.4015C16.9133 65.2688 16.8686 65.0476 16.7942 64.7675L17.0324 64.6938C17.1218 65.0476 17.2558 65.5489 17.4643 66.1681C17.6728 66.8316 17.8366 67.3181 17.9558 67.6277L17.7175 67.7014C17.6132 67.4213 17.5239 67.2296 17.4345 67.1264C17.3452 67.0232 17.226 66.9495 17.0771 66.9495C16.9282 66.9495 16.7048 66.979 16.4219 67.0822L10.6437 68.8514C10.3458 68.9399 10.1522 69.0283 10.0331 69.1168C9.91395 69.2052 9.85438 69.3232 9.83949 69.4559C9.8246 69.6033 9.86927 69.8097 9.94374 70.0898L9.70546 70.1635C9.631 69.8392 9.49697 69.3674 9.30337 68.7482C9.21401 68.4533 9.09488 68.1142 8.97574 67.7604C8.8566 67.4065 8.76725 67.1559 8.72257 67.0232C8.52897 66.4187 8.4694 65.888 8.51408 65.4162C8.55876 64.9444 8.70768 64.5611 8.94595 64.2515C9.18423 63.9419 9.49697 63.7355 9.88417 63.6175C10.182 63.5291 10.5096 63.4996 10.8671 63.5438C11.2245 63.588 11.567 63.7355 11.9244 64.0008C12.2818 64.2662 12.5797 64.6495 12.8328 65.1656L12.8179 65.0181C12.7733 64.6495 12.7584 64.3547 12.8179 64.104C12.8775 63.8534 12.9818 63.647 13.1307 63.4701C13.2945 63.2932 13.5328 63.1015 13.8455 62.9246L14.9475 62.2759C15.1709 62.1579 15.3496 62.04 15.4539 61.9515C15.5581 61.8631 15.6475 61.7746 15.6921 61.6861C15.7368 61.5977 15.7368 61.4945 15.707 61.3913C15.6624 61.2586 15.6028 61.1701 15.5134 61.1112C15.4241 61.0522 15.2752 60.9785 15.0667 60.9047L15.1411 60.6836C15.439 60.7868 15.6921 60.9047 15.856 61.0374ZM12.2967 64.9886C12.0435 64.7528 11.7457 64.6201 11.433 64.5906C11.1202 64.5611 10.7628 64.6053 10.3607 64.738C9.72035 64.9297 9.28848 65.2393 9.0502 65.6373C8.81192 66.0354 8.81192 66.5809 9.02042 67.2444C9.09488 67.4803 9.18423 67.6572 9.27358 67.7604C9.36294 67.8636 9.49697 67.9226 9.64589 67.9226C9.79481 67.9226 10.0182 67.8783 10.2863 67.8046L13.1456 66.92L12.9073 66.1386C12.7584 65.6079 12.5499 65.2245 12.2967 64.9886Z" fill="#AEA6E1"/>
<path d="M14.7095 47.046C15.2754 46.7954 15.6179 46.3236 15.7668 45.6159C15.8115 45.3505 15.8115 45.0851 15.737 44.8345C15.6626 44.5839 15.5285 44.3627 15.32 44.1711C15.1115 43.9794 14.8286 43.8467 14.4563 43.7877C14.1436 43.7288 13.8606 43.7582 13.5925 43.8614C13.3245 43.9646 13.0564 44.1268 12.8033 44.348C12.5501 44.5691 12.2522 44.864 11.9246 45.2326C11.5523 45.6454 11.2247 45.9845 10.9417 46.2204C10.6588 46.471 10.346 46.6479 10.0035 46.7806C9.66099 46.9133 9.27379 46.9281 8.84192 46.8543C8.39515 46.7659 8.02284 46.6037 7.75478 46.3383C7.48672 46.0729 7.29312 45.7633 7.20377 45.3947C7.11442 45.0262 7.11442 44.6428 7.18888 44.23C7.23355 43.9794 7.29312 43.7877 7.36758 43.6108C7.44205 43.4339 7.51651 43.3012 7.60586 43.198C7.69521 43.0948 7.78457 42.9768 7.9037 42.8589C8.05263 42.6967 8.12709 42.5788 8.15687 42.4903C8.17176 42.4166 8.14198 42.3576 8.06752 42.2987C7.99306 42.2397 7.85903 42.1954 7.68032 42.1365L7.725 41.8711C8.18666 41.989 8.99084 42.166 10.1673 42.3871L10.1226 42.6525C9.70567 42.6083 9.31847 42.623 8.93127 42.7115C8.55896 42.7852 8.23133 42.9474 7.96327 43.198C7.69521 43.4339 7.51651 43.773 7.44205 44.1858C7.38248 44.4659 7.39737 44.7166 7.47183 44.9672C7.54629 45.2178 7.68032 45.4095 7.85903 45.5717C8.05263 45.7338 8.27601 45.837 8.54407 45.896C8.97595 45.9697 9.34825 45.9108 9.66099 45.7044C9.97373 45.498 10.2716 45.2326 10.5545 44.923C10.8375 44.6134 11.0162 44.4069 11.1204 44.3037C11.5374 43.8614 11.8799 43.5223 12.1629 43.2717C12.4458 43.0211 12.7586 42.8442 13.1011 42.7262C13.4436 42.6083 13.8159 42.5935 14.218 42.6672C14.7095 42.7557 15.1115 42.9474 15.4094 43.2275C15.7072 43.5223 15.9008 43.8614 16.0051 44.2743C16.1093 44.6871 16.1093 45.1294 16.02 45.6012C15.9455 45.9845 15.8562 46.2793 15.7221 46.5152C15.603 46.7511 15.4392 46.9575 15.2605 47.1492C15.1115 47.3114 15.0371 47.4293 15.0073 47.5178C14.9924 47.5915 15.0222 47.6505 15.0967 47.7094C15.1711 47.7684 15.3051 47.8274 15.4839 47.8716L15.4392 48.137C15.0073 48.0191 14.0542 47.8274 12.5799 47.562L12.6245 47.2966C13.4585 47.3704 14.1436 47.2966 14.7095 47.046Z" fill="#AEA6E1"/>
<path d="M11.7607 34.6171C11.3437 34.396 10.8672 34.1895 10.3311 33.9831C10.6587 33.4082 11.2097 32.4056 11.9543 30.9755C12.6989 29.5601 13.2201 28.5576 13.5031 27.9531C13.9945 28.2627 14.4413 28.5281 14.8434 28.7345C15.2008 28.9262 15.5136 29.0589 15.7518 29.1621L15.6178 29.4127C15.0221 29.1768 14.5753 29.0294 14.2626 28.9852C13.9499 28.9262 13.6669 28.9852 13.4286 29.1326C13.1904 29.28 12.9521 29.5749 12.7287 30.0172L12.4309 30.6069L18.5814 33.7767C18.8792 33.9389 19.1175 34.0126 19.2813 34.0274C19.4451 34.0421 19.594 33.9979 19.7281 33.8799C19.8621 33.762 20.011 33.5408 20.1897 33.2312L20.4131 33.3492C20.1897 33.7178 19.9068 34.2338 19.5494 34.912C19.177 35.6197 18.909 36.1652 18.7452 36.5043L18.5218 36.3863C18.6707 36.062 18.775 35.8113 18.7898 35.6491C18.8196 35.4722 18.775 35.3248 18.6558 35.1921C18.5367 35.0594 18.3431 34.9267 18.0452 34.7645L11.8947 31.58L11.582 32.155C11.3437 32.5973 11.2395 32.9511 11.2544 33.2312C11.2693 33.5114 11.3884 33.762 11.6118 33.9831C11.8352 34.2043 12.2075 34.4992 12.7436 34.8383L12.6096 35.0889C12.416 34.9709 12.1181 34.8088 11.7607 34.6171Z" fill="#AEA6E1"/>
<path d="M22.275 17.6771C22.5282 17.4265 22.7367 17.1906 22.8856 17.0137L23.0643 17.1906C22.975 17.3233 22.9303 17.5149 22.9452 17.7361C22.9601 17.9572 23.0197 18.2669 23.1388 18.6354L24.494 22.6309L26.0726 24.1789C26.296 24.3853 26.4598 24.5328 26.5938 24.5917C26.7278 24.6507 26.8619 24.6507 26.9959 24.5917C27.1299 24.5328 27.2937 24.4001 27.5171 24.2084L27.6958 24.3853C27.4129 24.636 27.0406 24.9898 26.5789 25.4469C26.0875 25.9334 25.73 26.3167 25.5067 26.5673L25.328 26.3904C25.5216 26.1693 25.6556 26.0071 25.7152 25.8744C25.7747 25.7417 25.7747 25.609 25.7003 25.4763C25.6407 25.3436 25.4918 25.1667 25.2833 24.9603L23.9728 23.6777L18.9988 22.2328C18.7009 22.1443 18.4775 22.1149 18.3286 22.1296C18.1797 22.1443 18.0754 22.1886 18.001 22.2623L17.8223 22.0854C18.0605 21.879 18.3286 21.6431 18.5967 21.363C19.1477 20.8027 19.5498 20.4046 19.7731 20.1393L19.9519 20.3162C19.5498 20.7142 19.4604 21.0239 19.6838 21.245C19.7731 21.3335 19.8923 21.3924 20.071 21.4514L24.2557 22.7341L23.1537 19.4758C22.9899 19.004 22.8261 18.6797 22.6474 18.5175C22.4835 18.3553 22.3048 18.3111 22.1112 18.3701C21.9176 18.429 21.6942 18.5765 21.4262 18.8271L21.2475 18.6502C21.6049 18.3258 21.9325 18.0015 22.275 17.6771Z" fill="#AEA6E1"/>
<path d="M31.2851 11.7352C31.1958 11.8384 31.1511 11.9711 31.1809 12.1186C31.2106 12.266 31.2851 12.4724 31.434 12.7378L34.3082 18.0159C34.4572 18.2813 34.5763 18.4582 34.6954 18.5614C34.7997 18.6646 34.9337 18.6941 35.0677 18.6793C35.2018 18.6646 35.4103 18.5761 35.6634 18.4435L36.4527 18.0159C36.8995 17.78 37.2122 17.5294 37.376 17.2787C37.5398 17.0281 37.5994 16.748 37.5547 16.4089C37.5101 16.0698 37.376 15.6422 37.1378 15.082L37.3909 14.9493C37.4952 15.1852 37.6441 15.48 37.8377 15.8339C38.0611 16.232 38.3291 16.6743 38.6568 17.1608C38.1653 17.3967 37.3314 17.8242 36.1847 18.4435C34.8146 19.1806 33.7721 19.7409 33.0871 20.1389L32.9679 19.9325C33.2211 19.7851 33.3998 19.6524 33.4892 19.5492C33.5785 19.446 33.6232 19.3133 33.5934 19.1659C33.5636 19.0184 33.4892 18.812 33.3402 18.5467L30.4362 13.2685C30.2873 13.0032 30.1682 12.8262 30.049 12.723C29.9448 12.6198 29.8108 12.5904 29.6767 12.6051C29.5278 12.6198 29.3342 12.6936 29.0662 12.8262L28.9619 12.6051C29.2747 12.4724 29.7363 12.2365 30.3469 11.8974C30.9277 11.5878 31.3745 11.3372 31.6872 11.1455L31.8063 11.3519C31.5532 11.4993 31.3894 11.632 31.2851 11.7352Z" fill="#AEA6E1"/>
<path d="M49.4234 12.6787C49.5128 13.121 49.6468 13.6223 49.8106 14.1825C49.2596 14.271 48.3512 14.4331 47.0704 14.6838C45.5365 14.9787 44.3898 15.2145 43.6005 15.3915L43.5559 15.1556C43.8388 15.0819 44.0473 15.0229 44.1665 14.9344C44.2856 14.8607 44.3601 14.7428 44.3749 14.6101C44.3898 14.4626 44.3749 14.2415 44.3154 13.9466L43.1538 8.06404C43.0942 7.76917 43.0346 7.56276 42.9453 7.43007C42.8559 7.29738 42.7666 7.22367 42.6177 7.20892C42.4836 7.17944 42.2602 7.19418 41.9773 7.23841L41.9326 7.00252C42.7219 6.86983 43.8835 6.66342 45.4025 6.36856C46.579 6.13266 47.413 5.97049 47.8895 5.85254C47.9342 6.3833 48.0086 6.85508 48.0831 7.2679C48.1427 7.57751 48.2023 7.8134 48.2618 7.99032L47.9938 8.04929C47.8299 7.54802 47.681 7.17944 47.547 6.94354C47.413 6.70765 47.2194 6.56022 46.996 6.4865C46.7577 6.41279 46.445 6.41278 46.0131 6.50124L45.0153 6.69291C44.7324 6.75188 44.5239 6.81085 44.4047 6.88457C44.2856 6.95829 44.2111 7.06149 44.1813 7.20892C44.1665 7.35636 44.1813 7.57751 44.2409 7.87237L44.7919 10.6736L45.5812 10.5114C45.9833 10.4377 46.2216 10.2608 46.3109 9.99541C46.4003 9.73003 46.4301 9.4794 46.4152 9.22876C46.4003 8.97812 46.3854 8.81595 46.3854 8.74223L46.6535 8.68326C46.6981 9.08133 46.7577 9.44991 46.8322 9.80375L46.9513 10.364C47.0258 10.7621 47.1598 11.3223 47.3534 12.03L47.0853 12.089C47.0704 12.03 47.0109 11.8531 46.9066 11.5287C46.8024 11.2044 46.6535 10.9832 46.4301 10.8505C46.2067 10.7178 45.9535 10.6883 45.6259 10.7473L44.8366 10.8948L45.4025 13.7402C45.4621 14.0351 45.5216 14.2415 45.5961 14.3742C45.6706 14.4921 45.7748 14.5658 45.9237 14.5953C46.0578 14.6101 46.2812 14.5953 46.5641 14.5364L47.4427 14.3594C47.9342 14.2562 48.3065 14.1235 48.5448 13.9466C48.783 13.7697 48.9171 13.5191 48.9766 13.2095C49.0362 12.8998 49.0362 12.4575 48.9915 11.8826L49.2596 11.8236C49.3043 12.0447 49.349 12.3249 49.4234 12.6787Z" fill="#AEA6E1"/>
<path d="M39.3858 68.9841C38.7007 68.07 38.105 67.0674 37.5838 65.9617C37.0626 64.8559 36.6456 63.7354 36.3329 62.5855C35.6478 57.5285 35.6329 52.619 36.2733 47.8569C36.9137 43.0948 37.9561 38.4064 39.3858 33.777C39.6241 33.261 40.1453 33.0104 40.9495 33.0104C41.7536 33.0104 42.5429 33.1873 43.3471 33.5411C44.1513 33.895 44.8066 34.3667 45.3278 34.9565C45.849 35.5462 45.9682 36.1654 45.6852 36.7994C45.2384 37.743 44.8066 39.0256 44.3747 40.6179C43.9428 42.2249 43.5109 43.9941 43.1237 45.9255C42.7216 47.8569 42.3791 49.8915 42.0813 51.9998C41.7834 54.108 41.56 56.1426 41.426 58.074C41.292 60.0054 41.2622 61.7598 41.3367 63.3226C41.4111 64.8854 41.6494 66.1238 42.0515 67.0232C43.9279 64.5316 45.6405 61.9515 47.2042 59.2829C48.7679 56.6144 50.2273 53.9164 51.5974 51.1594C52.9675 48.4171 54.278 45.6454 55.5141 42.8294C56.7501 40.0282 57.9713 37.2564 59.1627 34.5289C59.7584 33.143 60.3541 31.6835 60.9349 30.1502C61.5156 28.6021 62.2752 27.29 63.2431 26.1842C63.6452 25.8304 63.958 25.7124 64.1665 25.8304C64.3898 25.9483 64.5388 26.1695 64.6132 26.5086C64.6877 26.8477 64.7324 27.2015 64.7324 27.5701C64.7324 27.9387 64.7324 28.2335 64.7324 28.4252C64.4494 30.2386 64.2111 32.0373 64.0175 33.8212C63.8239 35.6052 63.3921 37.3154 62.7666 38.9814C61.7241 41.591 60.6668 44.171 59.5648 46.7511C58.4627 49.3165 57.2862 51.8523 56.0353 54.3439C54.7844 56.8356 53.4143 59.2535 51.9697 61.5976C50.5103 63.9566 48.9317 66.1976 47.2042 68.3206C45.849 70.0161 44.4938 70.9154 43.1684 71.0186C41.7834 71.1366 40.5474 70.4436 39.3858 68.9841Z" fill="#AEA6E1" stroke="white" stroke-miterlimit="10"/>
<path d="M64.0475 62.2909C63.2434 61.1852 62.4541 60.0647 61.6797 58.9147C60.9053 57.7647 60.5181 56.5115 60.5181 55.1257C60.5181 53.5924 60.9648 52.1328 61.8584 50.7616C62.7519 49.4053 63.7795 48.2995 64.9411 47.4739C65.4176 47.1643 65.9091 46.8989 66.4005 46.7072C66.8919 46.5156 67.4281 46.5303 67.994 46.7662C68.2322 46.8842 68.4854 46.9726 68.7386 47.0316C68.9918 47.0906 69.23 47.1643 69.4236 47.238C69.6172 47.3117 69.8406 47.4297 70.0789 47.5918C70.3172 47.754 70.4363 47.9604 70.4363 48.2405C70.4363 49.3463 70.4661 50.2456 70.5257 50.9386C70.5852 51.6315 70.6746 52.2212 70.7937 52.7225C70.9129 53.2238 71.032 53.6513 71.1511 54.0199C71.2703 54.4032 71.3894 54.8013 71.5085 55.2289C71.583 55.6269 71.5681 55.966 71.449 56.2314C71.3298 56.5115 71.032 56.541 70.5554 56.3494C69.6768 56.0398 69.0215 55.4058 68.6046 54.4475C68.1876 53.4892 67.8748 52.634 67.6812 51.8379C67.6366 51.6757 67.5472 51.4104 67.3834 51.0123C67.2196 50.6142 67.1302 50.3341 67.0856 50.1867C66.7728 50.1129 66.3856 50.2161 65.9537 50.511C65.5219 50.8059 65.1198 51.2187 64.7921 51.72C64.4496 52.236 64.2262 52.8257 64.1369 53.5039C64.0326 54.1821 64.1667 54.8455 64.5241 55.5237C64.6879 55.7596 64.9113 56.0545 65.2091 56.3789C65.507 56.718 65.8048 57.057 66.1027 57.4109C66.4005 57.7647 66.6983 58.1186 66.9962 58.4429C67.294 58.7673 67.5472 59.0474 67.7408 59.2391C67.9791 59.4749 68.1429 59.6076 68.2174 59.6224C68.2918 59.6371 68.5003 59.5929 68.813 59.4749C69.2151 59.2833 69.8257 59.0179 70.6448 58.7083C71.4639 58.3987 72.3276 58.0743 73.2212 57.7647C74.1147 57.4551 74.9784 57.1897 75.7975 56.9686C76.6166 56.7474 77.2421 56.6442 77.6888 56.6442C77.9718 56.6442 78.1654 56.7474 78.2845 56.9391C78.4036 57.057 78.3888 57.2192 78.2249 57.4109C78.0611 57.6025 77.8526 57.809 77.5995 58.0006C77.3463 58.1923 77.0633 58.3692 76.7953 58.5314C76.5123 58.6936 76.3336 58.782 76.2592 58.8262C75.5741 59.2243 74.7253 59.6666 73.6828 60.1679C72.6404 60.6544 71.7468 61.1409 70.9873 61.6127C70.9129 61.6864 70.7639 61.7749 70.5405 61.8486C70.3172 61.9223 70.1534 62.0108 70.0342 62.0845C70.5108 63.146 70.8533 64.0749 71.0469 64.8415C71.2405 65.6082 71.3149 66.3453 71.2554 67.0678C71.1958 67.7754 71.0469 68.4979 70.8086 69.235C70.5703 69.9722 70.2427 70.8126 69.8555 71.7561C69.2896 72.6702 68.7237 73.5401 68.1429 74.3657C67.5621 75.1913 66.9217 75.9432 66.192 76.6214C65.4772 77.2996 64.6879 77.8304 63.8539 78.2137C63.02 78.6118 62.0966 78.8034 61.0989 78.8034C60.533 78.8034 59.9968 78.7297 59.4756 78.597C58.9544 78.4643 58.5225 78.1695 58.1651 77.7419C57.2418 76.7541 56.7354 75.6779 56.6163 74.5131C56.4972 73.3484 56.6014 72.1984 56.9141 71.0485C57.1524 70.3408 57.4503 69.6921 57.8077 69.0876C58.6863 67.5838 59.6543 66.3158 60.7117 65.2691C61.7839 64.237 62.8859 63.2345 64.0475 62.2909ZM66.0878 64.9595C65.641 65.4018 65.0453 66.021 64.2858 66.8319C63.5263 67.6427 62.8264 68.5273 62.1562 69.4709C61.501 70.4145 60.9648 71.3581 60.5479 72.2869C60.1309 73.2157 60.0266 74.0119 60.2202 74.6901C61.0244 74.3362 61.8435 73.7465 62.6774 72.9356C63.5114 72.1247 64.256 71.2401 64.8964 70.2671C65.5368 69.294 65.9835 68.3357 66.2367 67.3921C66.4899 66.4338 66.4452 65.6229 66.0878 64.9595Z" fill="#AEA6E1" stroke="white" stroke-miterlimit="10"/>
<path d="M54.3374 86.2929C35.7072 86.2929 20.5469 71.2842 20.5469 52.8403C20.5469 34.3964 35.7072 19.3877 54.3374 19.3877C72.9676 19.3877 88.1279 34.3964 88.1279 52.8403C88.1279 71.2842 72.9676 86.2929 54.3374 86.2929ZM54.3374 20.862C36.5262 20.862 22.0361 35.2073 22.0361 52.8403C22.0361 70.4733 36.5262 84.8185 54.3374 84.8185C72.1485 84.8185 86.6386 70.4733 86.6386 52.8403C86.6386 35.2073 72.1485 20.862 54.3374 20.862Z" fill="#AEA6E1"/>
</g>
</svg>
