<svg width="172" height="45" viewBox="0 0 172 45" fill="none" xmlns="http://www.w3.org/2000/svg">
<path d="M37.0148 44.9306H9.03606C4.4382 44.9306 0.711914 41.2415 0.711914 36.6896V8.99067C0.711914 4.43879 4.4382 0.749756 9.03606 0.749756H37.0148C41.6127 0.749756 45.339 4.43879 45.339 8.99067V36.6896C45.339 41.2415 41.6127 44.9306 37.0148 44.9306Z" fill="#AEA6E1"/>
<path d="M31.0648 23.2467C31.8606 24.2346 32.2648 25.385 32.2648 26.6856C32.2648 28.5989 31.6206 30.0995 30.3322 31.1624C29.0437 32.2254 27.1995 32.7756 24.7996 32.7756H14.3154V10.4539H24.5469C26.8459 10.4539 28.6143 10.9541 29.8648 11.942C31.1153 12.9299 31.7469 14.343 31.7469 16.1687C31.7469 17.5193 31.3806 18.6322 30.6606 19.5326C29.9406 20.433 28.9932 21.0082 27.8185 21.2833C29.1953 21.6085 30.269 22.2588 31.0648 23.2467ZM19.7596 19.5826H23.3343C25.229 19.5826 26.1764 18.7823 26.1764 17.1817C26.1764 15.581 25.2038 14.7806 23.2712 14.7806H19.7596V19.5826ZM26.6816 25.9353C26.6816 25.1349 26.4164 24.5097 25.8859 24.0595C25.3554 23.6093 24.5975 23.3842 23.6248 23.3842H19.7722V28.3988H23.6627C25.6711 28.3863 26.6816 27.5735 26.6816 25.9353Z" fill="white"/>
<path d="M71.1955 32.7756L66.3197 24.3471H65.0818V32.7756H59.625V10.4539H68.9344C70.7154 10.4539 72.2312 10.754 73.4565 11.3667C74.6944 11.9795 75.6165 12.8173 76.2354 13.8803C76.8544 14.9432 77.1575 16.1562 77.1575 17.5318C77.1575 19.1575 76.7028 20.533 75.8059 21.671C74.8965 22.809 73.5954 23.5843 71.8649 24.0095L77.2207 32.7881H71.1955V32.7756ZM65.0818 20.6581H68.4544C69.5407 20.6581 70.3365 20.4205 70.8418 19.9453C71.347 19.4701 71.6123 18.7698 71.6123 17.8444C71.6123 16.9566 71.347 16.2688 70.8291 15.7561C70.3112 15.2558 69.5154 14.9932 68.4544 14.9932H65.0818V20.6581Z" fill="#AEA6E1"/>
<path d="M101.84 28.7112H93.3898L91.9876 32.7878H86.2529L94.5139 10.6287H100.792L109.053 32.7878H103.255L101.84 28.7112ZM100.438 24.5969L97.6339 16.3936L94.7918 24.5969H100.438Z" fill="#AEA6E1"/>
<path d="M139.153 32.7756H133.696L124.576 19.0699V32.7756H119.119V10.4539H124.576L133.696 24.2846V10.4539H139.153V32.7756Z" fill="#AEA6E1"/>
<path d="M169.747 27.3983C168.799 29.0865 167.435 30.4121 165.667 31.3625C163.886 32.3129 161.801 32.7881 159.401 32.7881H150.888V10.4663H159.401C161.827 10.4663 163.923 10.929 165.679 11.8544C167.448 12.7798 168.799 14.0803 169.747 15.7685C170.694 17.4567 171.161 19.3825 171.161 21.5834C171.161 23.7593 170.681 25.6976 169.747 27.3983ZM163.873 26.2728C165.048 25.1599 165.641 23.5842 165.641 21.5709C165.641 19.5451 165.048 17.9819 163.873 16.869C162.698 15.756 161.043 15.1933 158.909 15.1933H156.332V27.9486H158.909C161.043 27.9486 162.698 27.3983 163.873 26.2728Z" fill="#AEA6E1"/>
</svg>
